<svg id="visual" viewBox="0 0 900 600" width="900" height="600" xmlns="http://www.w3.org/2000/svg" xmlns:xlink="http://www.w3.org/1999/xlink" version="1.1"><g transform="translate(437.20761022113044 237.46931837509675)"><path d="M108.7 -150.1C141.3 -125.9 168.6 -94.8 198.4 -52.7C228.3 -10.7 260.6 42.2 246.3 78.1C232 114 171.1 132.9 122.3 179.5C73.5 226.1 36.7 300.6 -13.6 319.2C-63.9 337.9 -127.7 300.8 -166.4 250.9C-205.1 201 -218.6 138.2 -222.8 82.5C-227 26.8 -221.9 -21.8 -206.3 -66.1C-190.6 -110.3 -164.4 -150.2 -128.2 -173.3C-92.1 -196.4 -46 -202.7 -4 -197.2C38 -191.6 76 -174.3 108.7 -150.1" fill="#833FFD"></path></g></svg>