<svg xmlns="http://www.w3.org/2000/svg" fill="none" width="1095" height="672">
  <path fill="url(#paint0_linear)" d="M0 0c0 77 63 140 140 140h107c102 0 133 139 40 182l-26 12a161 161 0 0 0 109 302l533-143A259 259 0 0 0 926 0H0z"/>
  <mask id="a" width="1095" height="642" x="0" y="0" maskUnits="userSpaceOnUse">
    <path fill="url(#paint1_linear)" d="M0 0c0 77 63 140 140 140h107c102 0 133 139 40 182l-26 12a161 161 0 0 0 109 302l533-143A259 259 0 0 0 926 0H0z"/>
  </mask>
  <g fill="#000" mask="url(#a)" opacity=".1">
    <path d="M51 10a2 2 0 1 1-3 0 2 2 0 0 1 3 0zm20 0a2 2 0 1 1-3 0 2 2 0 0 1 3 0zm20 0a2 2 0 1 1-3 0 2 2 0 0 1 3 0zm20 0a2 2 0 1 1-3 0 2 2 0 0 1 3 0zm20 0a2 2 0 1 1-3 0 2 2 0 0 1 3 0zm20 0a2 2 0 1 1-3 0 2 2 0 0 1 3 0zm20 0a2 2 0 1 1-3 0 2 2 0 0 1 3 0zm20 0a2 2 0 1 1-3 0 2 2 0 0 1 3 0zm20 0a2 2 0 1 1-3 0 2 2 0 0 1 3 0zm20 0a2 2 0 1 1-3 0 2 2 0 0 1 3 0zm20 0a2 2 0 1 1-3 0 2 2 0 0 1 3 0zm20 0a2 2 0 1 1-3 0 2 2 0 0 1 3 0zm20 0a2 2 0 1 1-3 0 2 2 0 0 1 3 0zm20 0a2 2 0 1 1-3 0 2 2 0 0 1 3 0zm20 0a2 2 0 1 1-3 0 2 2 0 0 1 3 0zM51 30a2 2 0 1 1-3 0 2 2 0 0 1 3 0zm20 0a2 2 0 1 1-3 0 2 2 0 0 1 3 0zm20 0a2 2 0 1 1-3 0 2 2 0 0 1 3 0zm20 0a2 2 0 1 1-3 0 2 2 0 0 1 3 0zm20 0a2 2 0 1 1-3 0 2 2 0 0 1 3 0zm20 0a2 2 0 1 1-3 0 2 2 0 0 1 3 0zm20 0a2 2 0 1 1-3 0 2 2 0 0 1 3 0zm20 0a2 2 0 1 1-3 0 2 2 0 0 1 3 0zm20 0a2 2 0 1 1-3 0 2 2 0 0 1 3 0zm20 0a2 2 0 1 1-3 0 2 2 0 0 1 3 0zm20 0a2 2 0 1 1-3 0 2 2 0 0 1 3 0zm20 0a2 2 0 1 1-3 0 2 2 0 0 1 3 0zm20 0a2 2 0 1 1-3 0 2 2 0 0 1 3 0zm20 0a2 2 0 1 1-3 0 2 2 0 0 1 3 0zm20 0a2 2 0 1 1-3 0 2 2 0 0 1 3 0zM51 50a2 2 0 1 1-3 0 2 2 0 0 1 3 0zm20 0a2 2 0 1 1-3 0 2 2 0 0 1 3 0zm20 0a2 2 0 1 1-3 0 2 2 0 0 1 3 0zm20 0a2 2 0 1 1-3 0 2 2 0 0 1 3 0zm20 0a2 2 0 1 1-3 0 2 2 0 0 1 3 0zm20 0a2 2 0 1 1-3 0 2 2 0 0 1 3 0zm20 0a2 2 0 1 1-3 0 2 2 0 0 1 3 0zm20 0a2 2 0 1 1-3 0 2 2 0 0 1 3 0zm20 0a2 2 0 1 1-3 0 2 2 0 0 1 3 0zm20 0a2 2 0 1 1-3 0 2 2 0 0 1 3 0zm20 0a2 2 0 1 1-3 0 2 2 0 0 1 3 0zm20 0a2 2 0 1 1-3 0 2 2 0 0 1 3 0zm20 0a2 2 0 1 1-3 0 2 2 0 0 1 3 0zm20 0a2 2 0 1 1-3 0 2 2 0 0 1 3 0zm20 0a2 2 0 1 1-3 0 2 2 0 0 1 3 0zM51 70a2 2 0 1 1-3 0 2 2 0 0 1 3 0zm20 0a2 2 0 1 1-3 0 2 2 0 0 1 3 0zm20 0a2 2 0 1 1-3 0 2 2 0 0 1 3 0zm20 0a2 2 0 1 1-3 0 2 2 0 0 1 3 0zm20 0a2 2 0 1 1-3 0 2 2 0 0 1 3 0zm20 0a2 2 0 1 1-3 0 2 2 0 0 1 3 0zm20 0a2 2 0 1 1-3 0 2 2 0 0 1 3 0zm20 0a2 2 0 1 1-3 0 2 2 0 0 1 3 0zm20 0a2 2 0 1 1-3 0 2 2 0 0 1 3 0zm20 0a2 2 0 1 1-3 0 2 2 0 0 1 3 0zm20 0a2 2 0 1 1-3 0 2 2 0 0 1 3 0zm20 0a2 2 0 1 1-3 0 2 2 0 0 1 3 0zm20 0a2 2 0 1 1-3 0 2 2 0 0 1 3 0zm20 0a2 2 0 1 1-3 0 2 2 0 0 1 3 0zm20 0a2 2 0 1 1-3 0 2 2 0 0 1 3 0zM51 90a2 2 0 1 1-3 0 2 2 0 0 1 3 0zm20 0a2 2 0 1 1-3 0 2 2 0 0 1 3 0zm20 0a2 2 0 1 1-3 0 2 2 0 0 1 3 0zm20 0a2 2 0 1 1-3 0 2 2 0 0 1 3 0zm20 0a2 2 0 1 1-3 0 2 2 0 0 1 3 0zm20 0a2 2 0 1 1-3 0 2 2 0 0 1 3 0zm20 0a2 2 0 1 1-3 0 2 2 0 0 1 3 0zm20 0a2 2 0 1 1-3 0 2 2 0 0 1 3 0zm20 0a2 2 0 1 1-3 0 2 2 0 0 1 3 0zm20 0a2 2 0 1 1-3 0 2 2 0 0 1 3 0zm20 0a2 2 0 1 1-3 0 2 2 0 0 1 3 0zm20 0a2 2 0 1 1-3 0 2 2 0 0 1 3 0zm20 0a2 2 0 1 1-3 0 2 2 0 0 1 3 0zm20 0a2 2 0 1 1-3 0 2 2 0 0 1 3 0zm20 0a2 2 0 1 1-3 0 2 2 0 0 1 3 0zM51 110a2 2 0 1 1-3 0 2 2 0 0 1 3 0zm20 0a2 2 0 1 1-3 0 2 2 0 0 1 3 0zm20 0a2 2 0 1 1-3 0 2 2 0 0 1 3 0zm20 0a2 2 0 1 1-3-1 2 2 0 0 1 3 0zm20 0a2 2 0 1 1-3-1 2 2 0 0 1 3 0zm20 0a2 2 0 1 1-3-1 2 2 0 0 1 3 0zm20 0a2 2 0 1 1-3-1 2 2 0 0 1 3 0zm20 0a2 2 0 1 1-3-1 2 2 0 0 1 3 0zm20 0a2 2 0 1 1-3-1 2 2 0 0 1 3 0zm20 0a2 2 0 1 1-3-1 2 2 0 0 1 3 0zm20 0a2 2 0 1 1-3-1 2 2 0 0 1 3 0zm20 0a2 2 0 1 1-3-1 2 2 0 0 1 3 0zm20 0a2 2 0 1 1-3-1 2 2 0 0 1 3 0zm20 0a2 2 0 1 1-3-1 2 2 0 0 1 3 0zm20 0a2 2 0 1 1-3-1 2 2 0 0 1 3 0zM51 130a2 2 0 1 1-3 0 2 2 0 0 1 3 0zm20 0a2 2 0 1 1-3 0 2 2 0 0 1 3 0zm20 0a2 2 0 1 1-3 0 2 2 0 0 1 3 0zm20 0a2 2 0 1 1-3-1 2 2 0 0 1 3 0zm20 0a2 2 0 1 1-3-1 2 2 0 0 1 3 0zm20 0a2 2 0 1 1-3-1 2 2 0 0 1 3 0zm20 0a2 2 0 1 1-3-1 2 2 0 0 1 3 0zm20 0a2 2 0 1 1-3-1 2 2 0 0 1 3 0zm20 0a2 2 0 1 1-3-1 2 2 0 0 1 3 0zm20 0a2 2 0 1 1-3-1 2 2 0 0 1 3 0zm20 0a2 2 0 1 1-3-1 2 2 0 0 1 3 0zm20 0a2 2 0 1 1-3-1 2 2 0 0 1 3 0zm20 0a2 2 0 1 1-3-1 2 2 0 0 1 3 0zm20 0a2 2 0 1 1-3-1 2 2 0 0 1 3 0zm20 0a2 2 0 1 1-3-1 2 2 0 0 1 3 0zM51 150a2 2 0 1 1-3 0 2 2 0 0 1 3 0zm20 0a2 2 0 1 1-3 0 2 2 0 0 1 3 0zm20 0a2 2 0 1 1-3 0 2 2 0 0 1 3 0zm20 0a2 2 0 1 1-3-1 2 2 0 0 1 3 0zm20 0a2 2 0 1 1-3-1 2 2 0 0 1 3 0zm20 0a2 2 0 1 1-3-1 2 2 0 0 1 3 0zm20 0a2 2 0 1 1-3-1 2 2 0 0 1 3 0zm20 0a2 2 0 1 1-3-1 2 2 0 0 1 3 0zm20 0a2 2 0 1 1-3-1 2 2 0 0 1 3 0zm20 0a2 2 0 1 1-3-1 2 2 0 0 1 3 0zm20 0a2 2 0 1 1-3-1 2 2 0 0 1 3 0zm20 0a2 2 0 1 1-3-1 2 2 0 0 1 3 0zm20 0a2 2 0 1 1-3-1 2 2 0 0 1 3 0zm20 0a2 2 0 1 1-3-1 2 2 0 0 1 3 0zm20 0a2 2 0 1 1-3-1 2 2 0 0 1 3 0zM51 170a2 2 0 1 1-3 0 2 2 0 0 1 3 0zm20 0a2 2 0 1 1-3 0 2 2 0 0 1 3 0zm20 0a2 2 0 1 1-3 0 2 2 0 0 1 3 0zm20 0a2 2 0 1 1-3-1 2 2 0 0 1 3 0zm20 0a2 2 0 1 1-3-1 2 2 0 0 1 3 0zm20 0a2 2 0 1 1-3-1 2 2 0 0 1 3 0zm20 0a2 2 0 1 1-3-1 2 2 0 0 1 3 0zm20 0a2 2 0 1 1-3-1 2 2 0 0 1 3 0zm20 0a2 2 0 1 1-3-1 2 2 0 0 1 3 0zm20 0a2 2 0 1 1-3-1 2 2 0 0 1 3 0zm20 0a2 2 0 1 1-3-1 2 2 0 0 1 3 0zm20 0a2 2 0 1 1-3-1 2 2 0 0 1 3 0zm20 0a2 2 0 1 1-3-1 2 2 0 0 1 3 0zm20 0a2 2 0 1 1-3-1 2 2 0 0 1 3 0zm20 0a2 2 0 1 1-3-1 2 2 0 0 1 3 0zM51 190a2 2 0 1 1-3 0 2 2 0 0 1 3 0zm20 0a2 2 0 1 1-3 0 2 2 0 0 1 3 0zm20 0a2 2 0 1 1-3 0 2 2 0 0 1 3 0zm20 0a2 2 0 1 1-3-1 2 2 0 0 1 3 0zm20 0a2 2 0 1 1-3-1 2 2 0 0 1 3 0zm20 0a2 2 0 1 1-3-1 2 2 0 0 1 3 0zm20 0a2 2 0 1 1-3-1 2 2 0 0 1 3 0zm20 0a2 2 0 1 1-3-1 2 2 0 0 1 3 0zm20 0a2 2 0 1 1-3-1 2 2 0 0 1 3 0zm20 0a2 2 0 1 1-3-1 2 2 0 0 1 3 0zm20 0a2 2 0 1 1-3-1 2 2 0 0 1 3 0zm20 0a2 2 0 1 1-3-1 2 2 0 0 1 3 0zm20 0a2 2 0 1 1-3-1 2 2 0 0 1 3 0zm20 0a2 2 0 1 1-3-1 2 2 0 0 1 3 0zm20 0a2 2 0 1 1-3-1 2 2 0 0 1 3 0zM51 210a2 2 0 1 1-3 0 2 2 0 0 1 3 0zm20 0a2 2 0 1 1-3 0 2 2 0 0 1 3 0zm20 0a2 2 0 1 1-3 0 2 2 0 0 1 3 0zm20 0a2 2 0 1 1-3-1 2 2 0 0 1 3 0zm20 0a2 2 0 1 1-3-1 2 2 0 0 1 3 0zm20 0a2 2 0 1 1-3-1 2 2 0 0 1 3 0zm20 0a2 2 0 1 1-3-1 2 2 0 0 1 3 0zm20 0a2 2 0 1 1-3-1 2 2 0 0 1 3 0zm20 0a2 2 0 1 1-3-1 2 2 0 0 1 3 0zm20 0a2 2 0 1 1-3-1 2 2 0 0 1 3 0zm20 0a2 2 0 1 1-3-1 2 2 0 0 1 3 0zm20 0a2 2 0 1 1-3-1 2 2 0 0 1 3 0zm20 0a2 2 0 1 1-3-1 2 2 0 0 1 3 0zm20 0a2 2 0 1 1-3-1 2 2 0 0 1 3 0zm20 0a2 2 0 1 1-3-1 2 2 0 0 1 3 0zM51 230a2 2 0 1 1-3 0 2 2 0 0 1 3 0zm20 0a2 2 0 1 1-3 0 2 2 0 0 1 3 0zm20 0a2 2 0 1 1-3 0 2 2 0 0 1 3 0zm20 0a2 2 0 1 1-3-1 2 2 0 0 1 3 0zm20 0a2 2 0 1 1-3-1 2 2 0 0 1 3 0zm20 0a2 2 0 1 1-3-1 2 2 0 0 1 3 0zm20 0a2 2 0 1 1-3-1 2 2 0 0 1 3 0zm20 0a2 2 0 1 1-3-1 2 2 0 0 1 3 0zm20 0a2 2 0 1 1-3-1 2 2 0 0 1 3 0zm20 0a2 2 0 1 1-3-1 2 2 0 0 1 3 0zm20 0a2 2 0 1 1-3-1 2 2 0 0 1 3 0zm20 0a2 2 0 1 1-3-1 2 2 0 0 1 3 0zm20 0a2 2 0 1 1-3-1 2 2 0 0 1 3 0zm20 0a2 2 0 1 1-3-1 2 2 0 0 1 3 0zm20 0a2 2 0 1 1-3-1 2 2 0 0 1 3 0zm20-220a2 2 0 1 1-3 0 2 2 0 0 1 3 0zm20 0a2 2 0 1 1-3 0 2 2 0 0 1 3 0zm20 0a2 2 0 1 1-3 0 2 2 0 0 1 3 0zm20 0a2 2 0 1 1-3 0 2 2 0 0 1 3 0zm20 0a2 2 0 1 1-3 0 2 2 0 0 1 3 0zm20 0a2 2 0 1 1-3 0 2 2 0 0 1 3 0zm20 0a2 2 0 1 1-3 0 2 2 0 0 1 3 0zm20 0a2 2 0 1 1-3 0 2 2 0 0 1 3 0zm20 0a2 2 0 1 1-3 0 2 2 0 0 1 3 0zm20 0a2 2 0 1 1-3 0 2 2 0 0 1 3 0zm20 0a2 2 0 1 1-3 0 2 2 0 0 1 3 0zm20 0a2 2 0 1 1-3 0 2 2 0 0 1 3 0zm20 0a2 2 0 1 1-3 0 2 2 0 0 1 3 0zm20 0a2 2 0 1 1-3 0 2 2 0 0 1 3 0zm20 0a2 2 0 1 1-3 0 2 2 0 0 1 3 0zM351 30a2 2 0 1 1-3 0 2 2 0 0 1 3 0zm20 0a2 2 0 1 1-3 0 2 2 0 0 1 3 0zm20 0a2 2 0 1 1-3 0 2 2 0 0 1 3 0zm20 0a2 2 0 1 1-3 0 2 2 0 0 1 3 0zm20 0a2 2 0 1 1-3 0 2 2 0 0 1 3 0zm20 0a2 2 0 1 1-3 0 2 2 0 0 1 3 0zm20 0a2 2 0 1 1-3 0 2 2 0 0 1 3 0zm20 0a2 2 0 1 1-3 0 2 2 0 0 1 3 0zm20 0a2 2 0 1 1-3 0 2 2 0 0 1 3 0zm20 0a2 2 0 1 1-3 0 2 2 0 0 1 3 0zm20 0a2 2 0 1 1-3 0 2 2 0 0 1 3 0zm20 0a2 2 0 1 1-3 0 2 2 0 0 1 3 0zm20 0a2 2 0 1 1-3 0 2 2 0 0 1 3 0zm20 0a2 2 0 1 1-3 0 2 2 0 0 1 3 0zm20 0a2 2 0 1 1-3 0 2 2 0 0 1 3 0zM351 50a2 2 0 1 1-3 0 2 2 0 0 1 3 0zm20 0a2 2 0 1 1-3 0 2 2 0 0 1 3 0zm20 0a2 2 0 1 1-3 0 2 2 0 0 1 3 0zm20 0a2 2 0 1 1-3 0 2 2 0 0 1 3 0zm20 0a2 2 0 1 1-3 0 2 2 0 0 1 3 0zm20 0a2 2 0 1 1-3 0 2 2 0 0 1 3 0zm20 0a2 2 0 1 1-3 0 2 2 0 0 1 3 0zm20 0a2 2 0 1 1-3 0 2 2 0 0 1 3 0zm20 0a2 2 0 1 1-3 0 2 2 0 0 1 3 0zm20 0a2 2 0 1 1-3 0 2 2 0 0 1 3 0zm20 0a2 2 0 1 1-3 0 2 2 0 0 1 3 0zm20 0a2 2 0 1 1-3 0 2 2 0 0 1 3 0zm20 0a2 2 0 1 1-3 0 2 2 0 0 1 3 0zm20 0a2 2 0 1 1-3 0 2 2 0 0 1 3 0zm20 0a2 2 0 1 1-3 0 2 2 0 0 1 3 0zM351 70a2 2 0 1 1-3 0 2 2 0 0 1 3 0zm20 0a2 2 0 1 1-3 0 2 2 0 0 1 3 0zm20 0a2 2 0 1 1-3 0 2 2 0 0 1 3 0zm20 0a2 2 0 1 1-3 0 2 2 0 0 1 3 0zm20 0a2 2 0 1 1-3 0 2 2 0 0 1 3 0zm20 0a2 2 0 1 1-3 0 2 2 0 0 1 3 0zm20 0a2 2 0 1 1-3 0 2 2 0 0 1 3 0zm20 0a2 2 0 1 1-3 0 2 2 0 0 1 3 0zm20 0a2 2 0 1 1-3 0 2 2 0 0 1 3 0zm20 0a2 2 0 1 1-3 0 2 2 0 0 1 3 0zm20 0a2 2 0 1 1-3 0 2 2 0 0 1 3 0zm20 0a2 2 0 1 1-3 0 2 2 0 0 1 3 0zm20 0a2 2 0 1 1-3 0 2 2 0 0 1 3 0zm20 0a2 2 0 1 1-3 0 2 2 0 0 1 3 0zm20 0a2 2 0 1 1-3 0 2 2 0 0 1 3 0zM351 90a2 2 0 1 1-3 0 2 2 0 0 1 3 0zm20 0a2 2 0 1 1-3 0 2 2 0 0 1 3 0zm20 0a2 2 0 1 1-3 0 2 2 0 0 1 3 0zm20 0a2 2 0 1 1-3 0 2 2 0 0 1 3 0zm20 0a2 2 0 1 1-3 0 2 2 0 0 1 3 0zm20 0a2 2 0 1 1-3 0 2 2 0 0 1 3 0zm20 0a2 2 0 1 1-3 0 2 2 0 0 1 3 0zm20 0a2 2 0 1 1-3 0 2 2 0 0 1 3 0zm20 0a2 2 0 1 1-3 0 2 2 0 0 1 3 0zm20 0a2 2 0 1 1-3 0 2 2 0 0 1 3 0zm20 0a2 2 0 1 1-3 0 2 2 0 0 1 3 0zm20 0a2 2 0 1 1-3 0 2 2 0 0 1 3 0zm20 0a2 2 0 1 1-3 0 2 2 0 0 1 3 0zm20 0a2 2 0 1 1-3 0 2 2 0 0 1 3 0zm20 0a2 2 0 1 1-3 0 2 2 0 0 1 3 0zm-280 20a2 2 0 1 1-3-1 2 2 0 0 1 3 0zm20 0a2 2 0 1 1-3-1 2 2 0 0 1 3 0zm20 0a2 2 0 1 1-3-1 2 2 0 0 1 3 0zm20 0a2 2 0 1 1-3-1 2 2 0 0 1 3 0zm20 0a2 2 0 1 1-3-1 2 2 0 0 1 3 0zm20 0a2 2 0 1 1-3-1 2 2 0 0 1 3 0zm20 0a2 2 0 1 1-3-1 2 2 0 0 1 3 0zm20 0a2 2 0 1 1-3-1 2 2 0 0 1 3 0zm20 0a2 2 0 1 1-3-1 2 2 0 0 1 3 0zm20 0a2 2 0 1 1-3-1 2 2 0 0 1 3 0zm20 0a2 2 0 1 1-3-1 2 2 0 0 1 3 0zm20 0a2 2 0 1 1-3-1 2 2 0 0 1 3 0zm20 0a2 2 0 1 1-3-1 2 2 0 0 1 3 0zm20 0a2 2 0 1 1-3-1 2 2 0 0 1 3 0zm20 0a2 2 0 1 1-3-1 2 2 0 0 1 3 0zm-280 20a2 2 0 1 1-3-1 2 2 0 0 1 3 0zm20 0a2 2 0 1 1-3-1 2 2 0 0 1 3 0zm20 0a2 2 0 1 1-3-1 2 2 0 0 1 3 0zm20 0a2 2 0 1 1-3-1 2 2 0 0 1 3 0zm20 0a2 2 0 1 1-3-1 2 2 0 0 1 3 0zm20 0a2 2 0 1 1-3-1 2 2 0 0 1 3 0zm20 0a2 2 0 1 1-3-1 2 2 0 0 1 3 0zm20 0a2 2 0 1 1-3-1 2 2 0 0 1 3 0zm20 0a2 2 0 1 1-3-1 2 2 0 0 1 3 0zm20 0a2 2 0 1 1-3-1 2 2 0 0 1 3 0zm20 0a2 2 0 1 1-3-1 2 2 0 0 1 3 0zm20 0a2 2 0 1 1-3-1 2 2 0 0 1 3 0zm20 0a2 2 0 1 1-3-1 2 2 0 0 1 3 0zm20 0a2 2 0 1 1-3-1 2 2 0 0 1 3 0zm20 0a2 2 0 1 1-3-1 2 2 0 0 1 3 0zm-280 20a2 2 0 1 1-3-1 2 2 0 0 1 3 0zm20 0a2 2 0 1 1-3-1 2 2 0 0 1 3 0zm20 0a2 2 0 1 1-3-1 2 2 0 0 1 3 0zm20 0a2 2 0 1 1-3-1 2 2 0 0 1 3 0zm20 0a2 2 0 1 1-3-1 2 2 0 0 1 3 0zm20 0a2 2 0 1 1-3-1 2 2 0 0 1 3 0zm20 0a2 2 0 1 1-3-1 2 2 0 0 1 3 0zm20 0a2 2 0 1 1-3-1 2 2 0 0 1 3 0zm20 0a2 2 0 1 1-3-1 2 2 0 0 1 3 0zm20 0a2 2 0 1 1-3-1 2 2 0 0 1 3 0zm20 0a2 2 0 1 1-3-1 2 2 0 0 1 3 0zm20 0a2 2 0 1 1-3-1 2 2 0 0 1 3 0zm20 0a2 2 0 1 1-3-1 2 2 0 0 1 3 0zm20 0a2 2 0 1 1-3-1 2 2 0 0 1 3 0zm20 0a2 2 0 1 1-3-1 2 2 0 0 1 3 0zm-280 20a2 2 0 1 1-3-1 2 2 0 0 1 3 0zm20 0a2 2 0 1 1-3-1 2 2 0 0 1 3 0zm20 0a2 2 0 1 1-3-1 2 2 0 0 1 3 0zm20 0a2 2 0 1 1-3-1 2 2 0 0 1 3 0zm20 0a2 2 0 1 1-3-1 2 2 0 0 1 3 0zm20 0a2 2 0 1 1-3-1 2 2 0 0 1 3 0zm20 0a2 2 0 1 1-3-1 2 2 0 0 1 3 0zm20 0a2 2 0 1 1-3-1 2 2 0 0 1 3 0zm20 0a2 2 0 1 1-3-1 2 2 0 0 1 3 0zm20 0a2 2 0 1 1-3-1 2 2 0 0 1 3 0zm20 0a2 2 0 1 1-3-1 2 2 0 0 1 3 0zm20 0a2 2 0 1 1-3-1 2 2 0 0 1 3 0zm20 0a2 2 0 1 1-3-1 2 2 0 0 1 3 0zm20 0a2 2 0 1 1-3-1 2 2 0 0 1 3 0zm20 0a2 2 0 1 1-3-1 2 2 0 0 1 3 0zm-280 20a2 2 0 1 1-3-1 2 2 0 0 1 3 0zm20 0a2 2 0 1 1-3-1 2 2 0 0 1 3 0zm20 0a2 2 0 1 1-3-1 2 2 0 0 1 3 0zm20 0a2 2 0 1 1-3-1 2 2 0 0 1 3 0zm20 0a2 2 0 1 1-3-1 2 2 0 0 1 3 0zm20 0a2 2 0 1 1-3-1 2 2 0 0 1 3 0zm20 0a2 2 0 1 1-3-1 2 2 0 0 1 3 0zm20 0a2 2 0 1 1-3-1 2 2 0 0 1 3 0zm20 0a2 2 0 1 1-3-1 2 2 0 0 1 3 0zm20 0a2 2 0 1 1-3-1 2 2 0 0 1 3 0zm20 0a2 2 0 1 1-3-1 2 2 0 0 1 3 0zm20 0a2 2 0 1 1-3-1 2 2 0 0 1 3 0zm20 0a2 2 0 1 1-3-1 2 2 0 0 1 3 0zm20 0a2 2 0 1 1-3-1 2 2 0 0 1 3 0zm20 0a2 2 0 1 1-3-1 2 2 0 0 1 3 0zm-280 20a2 2 0 1 1-3-1 2 2 0 0 1 3 0zm20 0a2 2 0 1 1-3-1 2 2 0 0 1 3 0zm20 0a2 2 0 1 1-3-1 2 2 0 0 1 3 0zm20 0a2 2 0 1 1-3-1 2 2 0 0 1 3 0zm20 0a2 2 0 1 1-3-1 2 2 0 0 1 3 0zm20 0a2 2 0 1 1-3-1 2 2 0 0 1 3 0zm20 0a2 2 0 1 1-3-1 2 2 0 0 1 3 0zm20 0a2 2 0 1 1-3-1 2 2 0 0 1 3 0zm20 0a2 2 0 1 1-3-1 2 2 0 0 1 3 0zm20 0a2 2 0 1 1-3-1 2 2 0 0 1 3 0zm20 0a2 2 0 1 1-3-1 2 2 0 0 1 3 0zm20 0a2 2 0 1 1-3-1 2 2 0 0 1 3 0zm20 0a2 2 0 1 1-3-1 2 2 0 0 1 3 0zm20 0a2 2 0 1 1-3-1 2 2 0 0 1 3 0zm20 0a2 2 0 1 1-3-1 2 2 0 0 1 3 0zm-280 20a2 2 0 1 1-3-1 2 2 0 0 1 3 0zm20 0a2 2 0 1 1-3-1 2 2 0 0 1 3 0zm20 0a2 2 0 1 1-3-1 2 2 0 0 1 3 0zm20 0a2 2 0 1 1-3-1 2 2 0 0 1 3 0zm20 0a2 2 0 1 1-3-1 2 2 0 0 1 3 0zm20 0a2 2 0 1 1-3-1 2 2 0 0 1 3 0zm20 0a2 2 0 1 1-3-1 2 2 0 0 1 3 0zm20 0a2 2 0 1 1-3-1 2 2 0 0 1 3 0zm20 0a2 2 0 1 1-3-1 2 2 0 0 1 3 0zm20 0a2 2 0 1 1-3-1 2 2 0 0 1 3 0zm20 0a2 2 0 1 1-3-1 2 2 0 0 1 3 0zm20 0a2 2 0 1 1-3-1 2 2 0 0 1 3 0zm20 0a2 2 0 1 1-3-1 2 2 0 0 1 3 0zm20 0a2 2 0 1 1-3-1 2 2 0 0 1 3 0zm20 0a2 2 0 1 1-3-1 2 2 0 0 1 3 0zm20-220a2 2 0 1 1-3 0 2 2 0 0 1 3 0zm20 0a2 2 0 1 1-3 0 2 2 0 0 1 3 0zm20 0a2 2 0 1 1-3 0 2 2 0 0 1 3 0zm20 0a2 2 0 1 1-3 0 2 2 0 0 1 3 0zm20 0a2 2 0 1 1-3 0 2 2 0 0 1 3 0zm20 0a2 2 0 1 1-3 0 2 2 0 0 1 3 0zm20 0a2 2 0 1 1-3 0 2 2 0 0 1 3 0zm20 0a2 2 0 1 1-3 0 2 2 0 0 1 3 0zm20 0a2 2 0 1 1-3 0 2 2 0 0 1 3 0zm20 0a2 2 0 1 1-3 0 2 2 0 0 1 3 0zm20 0a2 2 0 1 1-3 0 2 2 0 0 1 3 0zm20 0a2 2 0 1 1-3 0 2 2 0 0 1 3 0zm20 0a2 2 0 1 1-3 0 2 2 0 0 1 3 0zm20 0a2 2 0 1 1-3 0 2 2 0 0 1 3 0zm20 0a2 2 0 1 1-3 0 2 2 0 0 1 3 0zM651 30a2 2 0 1 1-3 0 2 2 0 0 1 3 0zm20 0a2 2 0 1 1-3 0 2 2 0 0 1 3 0zm20 0a2 2 0 1 1-3 0 2 2 0 0 1 3 0zm20 0a2 2 0 1 1-3 0 2 2 0 0 1 3 0zm20 0a2 2 0 1 1-3 0 2 2 0 0 1 3 0zm20 0a2 2 0 1 1-3 0 2 2 0 0 1 3 0zm20 0a2 2 0 1 1-3 0 2 2 0 0 1 3 0zm20 0a2 2 0 1 1-3 0 2 2 0 0 1 3 0zm20 0a2 2 0 1 1-3 0 2 2 0 0 1 3 0zm20 0a2 2 0 1 1-3 0 2 2 0 0 1 3 0zm20 0a2 2 0 1 1-3 0 2 2 0 0 1 3 0zm20 0a2 2 0 1 1-3 0 2 2 0 0 1 3 0zm20 0a2 2 0 1 1-3 0 2 2 0 0 1 3 0zm20 0a2 2 0 1 1-3 0 2 2 0 0 1 3 0zm20 0a2 2 0 1 1-3 0 2 2 0 0 1 3 0zM651 50a2 2 0 1 1-3 0 2 2 0 0 1 3 0zm20 0a2 2 0 1 1-3 0 2 2 0 0 1 3 0zm20 0a2 2 0 1 1-3 0 2 2 0 0 1 3 0zm20 0a2 2 0 1 1-3 0 2 2 0 0 1 3 0zm20 0a2 2 0 1 1-3 0 2 2 0 0 1 3 0zm20 0a2 2 0 1 1-3 0 2 2 0 0 1 3 0zm20 0a2 2 0 1 1-3 0 2 2 0 0 1 3 0zm20 0a2 2 0 1 1-3 0 2 2 0 0 1 3 0zm20 0a2 2 0 1 1-3 0 2 2 0 0 1 3 0zm20 0a2 2 0 1 1-3 0 2 2 0 0 1 3 0zm20 0a2 2 0 1 1-3 0 2 2 0 0 1 3 0zm20 0a2 2 0 1 1-3 0 2 2 0 0 1 3 0zm20 0a2 2 0 1 1-3 0 2 2 0 0 1 3 0zm20 0a2 2 0 1 1-3 0 2 2 0 0 1 3 0zm20 0a2 2 0 1 1-3 0 2 2 0 0 1 3 0zM651 70a2 2 0 1 1-3 0 2 2 0 0 1 3 0zm20 0a2 2 0 1 1-3 0 2 2 0 0 1 3 0zm20 0a2 2 0 1 1-3 0 2 2 0 0 1 3 0zm20 0a2 2 0 1 1-3 0 2 2 0 0 1 3 0zm20 0a2 2 0 1 1-3 0 2 2 0 0 1 3 0zm20 0a2 2 0 1 1-3 0 2 2 0 0 1 3 0zm20 0a2 2 0 1 1-3 0 2 2 0 0 1 3 0zm20 0a2 2 0 1 1-3 0 2 2 0 0 1 3 0zm20 0a2 2 0 1 1-3 0 2 2 0 0 1 3 0zm20 0a2 2 0 1 1-3 0 2 2 0 0 1 3 0zm20 0a2 2 0 1 1-3 0 2 2 0 0 1 3 0zm20 0a2 2 0 1 1-3 0 2 2 0 0 1 3 0zm20 0a2 2 0 1 1-3 0 2 2 0 0 1 3 0zm20 0a2 2 0 1 1-3 0 2 2 0 0 1 3 0zm20 0a2 2 0 1 1-3 0 2 2 0 0 1 3 0zM651 90a2 2 0 1 1-3 0 2 2 0 0 1 3 0zm20 0a2 2 0 1 1-3 0 2 2 0 0 1 3 0zm20 0a2 2 0 1 1-3 0 2 2 0 0 1 3 0zm20 0a2 2 0 1 1-3 0 2 2 0 0 1 3 0zm20 0a2 2 0 1 1-3 0 2 2 0 0 1 3 0zm20 0a2 2 0 1 1-3 0 2 2 0 0 1 3 0zm20 0a2 2 0 1 1-3 0 2 2 0 0 1 3 0zm20 0a2 2 0 1 1-3 0 2 2 0 0 1 3 0zm20 0a2 2 0 1 1-3 0 2 2 0 0 1 3 0zm20 0a2 2 0 1 1-3 0 2 2 0 0 1 3 0zm20 0a2 2 0 1 1-3 0 2 2 0 0 1 3 0zm20 0a2 2 0 1 1-3 0 2 2 0 0 1 3 0zm20 0a2 2 0 1 1-3 0 2 2 0 0 1 3 0zm20 0a2 2 0 1 1-3 0 2 2 0 0 1 3 0zm20 0a2 2 0 1 1-3 0 2 2 0 0 1 3 0zm-280 20a2 2 0 1 1-3-1 2 2 0 0 1 3 0zm20 0a2 2 0 1 1-3-1 2 2 0 0 1 3 0zm20 0a2 2 0 1 1-3-1 2 2 0 0 1 3 0zm20 0a2 2 0 1 1-3-1 2 2 0 0 1 3 0zm20 0a2 2 0 1 1-3-1 2 2 0 0 1 3 0zm20 0a2 2 0 1 1-3-1 2 2 0 0 1 3 0zm20 0a2 2 0 1 1-3-1 2 2 0 0 1 3 0zm20 0a2 2 0 1 1-3-1 2 2 0 0 1 3 0zm20 0a2 2 0 1 1-3-1 2 2 0 0 1 3 0zm20 0a2 2 0 1 1-3-1 2 2 0 0 1 3 0zm20 0a2 2 0 1 1-3-1 2 2 0 0 1 3 0zm20 0a2 2 0 1 1-3-1 2 2 0 0 1 3 0zm20 0a2 2 0 1 1-3-1 2 2 0 0 1 3 0zm20 0a2 2 0 1 1-3-1 2 2 0 0 1 3 0zm20 0a2 2 0 1 1-3-1 2 2 0 0 1 3 0zm-280 20a2 2 0 1 1-3-1 2 2 0 0 1 3 0zm20 0a2 2 0 1 1-3-1 2 2 0 0 1 3 0zm20 0a2 2 0 1 1-3-1 2 2 0 0 1 3 0zm20 0a2 2 0 1 1-3-1 2 2 0 0 1 3 0zm20 0a2 2 0 1 1-3-1 2 2 0 0 1 3 0zm20 0a2 2 0 1 1-3-1 2 2 0 0 1 3 0zm20 0a2 2 0 1 1-3-1 2 2 0 0 1 3 0zm20 0a2 2 0 1 1-3-1 2 2 0 0 1 3 0zm20 0a2 2 0 1 1-3-1 2 2 0 0 1 3 0zm20 0a2 2 0 1 1-3-1 2 2 0 0 1 3 0zm20 0a2 2 0 1 1-3-1 2 2 0 0 1 3 0zm20 0a2 2 0 1 1-3-1 2 2 0 0 1 3 0zm20 0a2 2 0 1 1-3-1 2 2 0 0 1 3 0zm20 0a2 2 0 1 1-3-1 2 2 0 0 1 3 0zm20 0a2 2 0 1 1-3-1 2 2 0 0 1 3 0zm-280 20a2 2 0 1 1-3-1 2 2 0 0 1 3 0zm20 0a2 2 0 1 1-3-1 2 2 0 0 1 3 0zm20 0a2 2 0 1 1-3-1 2 2 0 0 1 3 0zm20 0a2 2 0 1 1-3-1 2 2 0 0 1 3 0zm20 0a2 2 0 1 1-3-1 2 2 0 0 1 3 0zm20 0a2 2 0 1 1-3-1 2 2 0 0 1 3 0zm20 0a2 2 0 1 1-3-1 2 2 0 0 1 3 0zm20 0a2 2 0 1 1-3-1 2 2 0 0 1 3 0zm20 0a2 2 0 1 1-3-1 2 2 0 0 1 3 0zm20 0a2 2 0 1 1-3-1 2 2 0 0 1 3 0zm20 0a2 2 0 1 1-3-1 2 2 0 0 1 3 0zm20 0a2 2 0 1 1-3-1 2 2 0 0 1 3 0zm20 0a2 2 0 1 1-3-1 2 2 0 0 1 3 0zm20 0a2 2 0 1 1-3-1 2 2 0 0 1 3 0zm20 0a2 2 0 1 1-3-1 2 2 0 0 1 3 0zm-280 20a2 2 0 1 1-3-1 2 2 0 0 1 3 0zm20 0a2 2 0 1 1-3-1 2 2 0 0 1 3 0zm20 0a2 2 0 1 1-3-1 2 2 0 0 1 3 0zm20 0a2 2 0 1 1-3-1 2 2 0 0 1 3 0zm20 0a2 2 0 1 1-3-1 2 2 0 0 1 3 0zm20 0a2 2 0 1 1-3-1 2 2 0 0 1 3 0zm20 0a2 2 0 1 1-3-1 2 2 0 0 1 3 0zm20 0a2 2 0 1 1-3-1 2 2 0 0 1 3 0zm20 0a2 2 0 1 1-3-1 2 2 0 0 1 3 0zm20 0a2 2 0 1 1-3-1 2 2 0 0 1 3 0zm20 0a2 2 0 1 1-3-1 2 2 0 0 1 3 0zm20 0a2 2 0 1 1-3-1 2 2 0 0 1 3 0zm20 0a2 2 0 1 1-3-1 2 2 0 0 1 3 0zm20 0a2 2 0 1 1-3-1 2 2 0 0 1 3 0zm20 0a2 2 0 1 1-3-1 2 2 0 0 1 3 0zm-280 20a2 2 0 1 1-3-1 2 2 0 0 1 3 0zm20 0a2 2 0 1 1-3-1 2 2 0 0 1 3 0zm20 0a2 2 0 1 1-3-1 2 2 0 0 1 3 0zm20 0a2 2 0 1 1-3-1 2 2 0 0 1 3 0zm20 0a2 2 0 1 1-3-1 2 2 0 0 1 3 0zm20 0a2 2 0 1 1-3-1 2 2 0 0 1 3 0zm20 0a2 2 0 1 1-3-1 2 2 0 0 1 3 0zm20 0a2 2 0 1 1-3-1 2 2 0 0 1 3 0zm20 0a2 2 0 1 1-3-1 2 2 0 0 1 3 0zm20 0a2 2 0 1 1-3-1 2 2 0 0 1 3 0zm20 0a2 2 0 1 1-3-1 2 2 0 0 1 3 0zm20 0a2 2 0 1 1-3-1 2 2 0 0 1 3 0zm20 0a2 2 0 1 1-3-1 2 2 0 0 1 3 0zm20 0a2 2 0 1 1-3-1 2 2 0 0 1 3 0zm20 0a2 2 0 1 1-3-1 2 2 0 0 1 3 0zm-280 20a2 2 0 1 1-3-1 2 2 0 0 1 3 0zm20 0a2 2 0 1 1-3-1 2 2 0 0 1 3 0zm20 0a2 2 0 1 1-3-1 2 2 0 0 1 3 0zm20 0a2 2 0 1 1-3-1 2 2 0 0 1 3 0zm20 0a2 2 0 1 1-3-1 2 2 0 0 1 3 0zm20 0a2 2 0 1 1-3-1 2 2 0 0 1 3 0zm20 0a2 2 0 1 1-3-1 2 2 0 0 1 3 0zm20 0a2 2 0 1 1-3-1 2 2 0 0 1 3 0zm20 0a2 2 0 1 1-3-1 2 2 0 0 1 3 0zm20 0a2 2 0 1 1-3-1 2 2 0 0 1 3 0zm20 0a2 2 0 1 1-3-1 2 2 0 0 1 3 0zm20 0a2 2 0 1 1-3-1 2 2 0 0 1 3 0zm20 0a2 2 0 1 1-3-1 2 2 0 0 1 3 0zm20 0a2 2 0 1 1-3-1 2 2 0 0 1 3 0zm20 0a2 2 0 1 1-3-1 2 2 0 0 1 3 0zm-280 20a2 2 0 1 1-3-1 2 2 0 0 1 3 0zm20 0a2 2 0 1 1-3-1 2 2 0 0 1 3 0zm20 0a2 2 0 1 1-3-1 2 2 0 0 1 3 0zm20 0a2 2 0 1 1-3-1 2 2 0 0 1 3 0zm20 0a2 2 0 1 1-3-1 2 2 0 0 1 3 0zm20 0a2 2 0 1 1-3-1 2 2 0 0 1 3 0zm20 0a2 2 0 1 1-3-1 2 2 0 0 1 3 0zm20 0a2 2 0 1 1-3-1 2 2 0 0 1 3 0zm20 0a2 2 0 1 1-3-1 2 2 0 0 1 3 0zm20 0a2 2 0 1 1-3-1 2 2 0 0 1 3 0zm20 0a2 2 0 1 1-3-1 2 2 0 0 1 3 0zm20 0a2 2 0 1 1-3-1 2 2 0 0 1 3 0zm20 0a2 2 0 1 1-3-1 2 2 0 0 1 3 0zm20 0a2 2 0 1 1-3-1 2 2 0 0 1 3 0zm20 0a2 2 0 1 1-3-1 2 2 0 0 1 3 0zm20-220a2 2 0 1 1-3 0 2 2 0 0 1 3 0zm20 0a2 2 0 1 1-3 0 2 2 0 0 1 3 0zm20 0a2 2 0 1 1-3 0 2 2 0 0 1 3 0zm20 0a1 1 0 1 1-3 0 1 1 0 1 1 3 0zm20 0a1 1 0 1 1-3 0 1 1 0 1 1 3 0zm20 0a1 1 0 1 1-3 0 1 1 0 1 1 3 0zm20 0a1 1 0 1 1-3 0 1 1 0 1 1 3 0zm20 0a1 1 0 1 1-3 0 1 1 0 1 1 3 0zm20 0a1 1 0 1 1-3 0 1 1 0 1 1 3 0zm20 0a1 1 0 1 1-3 0 1 1 0 1 1 3 0zM951 30a2 2 0 1 1-3 0 2 2 0 0 1 3 0zm20 0a2 2 0 1 1-3 0 2 2 0 0 1 3 0zm20 0a2 2 0 1 1-3 0 2 2 0 0 1 3 0zm20 0a1 1 0 1 1-3 0 1 1 0 1 1 3 0zm20 0a1 1 0 1 1-3 0 1 1 0 1 1 3 0zm20 0a1 1 0 1 1-3 0 1 1 0 1 1 3 0zm20 0a1 1 0 1 1-3 0 1 1 0 1 1 3 0zm20 0a1 1 0 1 1-3 0 1 1 0 1 1 3 0zm20 0a1 1 0 1 1-3 0 1 1 0 1 1 3 0zm20 0a1 1 0 1 1-3 0 1 1 0 1 1 3 0zM951 50a2 2 0 1 1-3 0 2 2 0 0 1 3 0zm20 0a2 2 0 1 1-3 0 2 2 0 0 1 3 0zm20 0a2 2 0 1 1-3 0 2 2 0 0 1 3 0zm20 0a1 1 0 1 1-3 0 1 1 0 1 1 3 0zm20 0a1 1 0 1 1-3 0 1 1 0 1 1 3 0zm20 0a1 1 0 1 1-3 0 1 1 0 1 1 3 0zm20 0a1 1 0 1 1-3 0 1 1 0 1 1 3 0zm20 0a1 1 0 1 1-3 0 1 1 0 1 1 3 0zm20 0a1 1 0 1 1-3 0 1 1 0 1 1 3 0zm20 0a1 1 0 1 1-3 0 1 1 0 1 1 3 0zM951 70a2 2 0 1 1-3 0 2 2 0 0 1 3 0zm20 0a2 2 0 1 1-3 0 2 2 0 0 1 3 0zm20 0a2 2 0 1 1-3 0 2 2 0 0 1 3 0zm20 0a1 1 0 1 1-3 0 1 1 0 1 1 3 0zm20 0a1 1 0 1 1-3 0 1 1 0 1 1 3 0zm20 0a1 1 0 1 1-3 0 1 1 0 1 1 3 0zm20 0a1 1 0 1 1-3 0 1 1 0 1 1 3 0zm20 0a1 1 0 1 1-3 0 1 1 0 1 1 3 0zm20 0a1 1 0 1 1-3 0 1 1 0 1 1 3 0zm20 0a1 1 0 1 1-3 0 1 1 0 1 1 3 0zM951 90a2 2 0 1 1-3 0 2 2 0 0 1 3 0zm20 0a2 2 0 1 1-3 0 2 2 0 0 1 3 0zm20 0a2 2 0 1 1-3 0 2 2 0 0 1 3 0zm20 0a1 1 0 1 1-3 0 1 1 0 1 1 3 0zm20 0a1 1 0 1 1-3 0 1 1 0 1 1 3 0zm20 0a1 1 0 1 1-3 0 1 1 0 1 1 3 0zm20 0a1 1 0 1 1-3 0 1 1 0 1 1 3 0zm20 0a1 1 0 1 1-3 0 1 1 0 1 1 3 0zm20 0a1 1 0 1 1-3 0 1 1 0 1 1 3 0zm20 0a1 1 0 1 1-3 0 1 1 0 1 1 3 0zm-180 20a2 2 0 1 1-3-1 2 2 0 0 1 3 0zm20 0a2 2 0 1 1-3-1 2 2 0 0 1 3 0zm20 0a2 2 0 1 1-3-1 2 2 0 0 1 3 0zm20 0a2 2 0 1 1-3 0 2 2 0 0 1 3 0zm20 0a2 2 0 1 1-3 0 2 2 0 0 1 3 0zm20 0a2 2 0 1 1-3 0 2 2 0 0 1 3 0zm20 0a2 2 0 1 1-3 0 2 2 0 0 1 3 0zm20 0a2 2 0 1 1-3 0 2 2 0 0 1 3 0zm20 0a2 2 0 1 1-3 0 2 2 0 0 1 3 0zm20 0a2 2 0 1 1-3 0 2 2 0 0 1 3 0zm-180 20a2 2 0 1 1-3-1 2 2 0 0 1 3 0zm20 0a2 2 0 1 1-3-1 2 2 0 0 1 3 0zm20 0a2 2 0 1 1-3-1 2 2 0 0 1 3 0zm20 0a2 2 0 1 1-3 0 2 2 0 0 1 3 0zm20 0a2 2 0 1 1-3 0 2 2 0 0 1 3 0zm20 0a2 2 0 1 1-3 0 2 2 0 0 1 3 0zm20 0a2 2 0 1 1-3 0 2 2 0 0 1 3 0zm20 0a2 2 0 1 1-3 0 2 2 0 0 1 3 0zm20 0a2 2 0 1 1-3 0 2 2 0 0 1 3 0zm20 0a2 2 0 1 1-3 0 2 2 0 0 1 3 0zm-180 20a2 2 0 1 1-3-1 2 2 0 0 1 3 0zm20 0a2 2 0 1 1-3-1 2 2 0 0 1 3 0zm20 0a2 2 0 1 1-3-1 2 2 0 0 1 3 0zm20 0a2 2 0 1 1-3 0 2 2 0 0 1 3 0zm20 0a2 2 0 1 1-3 0 2 2 0 0 1 3 0zm20 0a2 2 0 1 1-3 0 2 2 0 0 1 3 0zm20 0a2 2 0 1 1-3 0 2 2 0 0 1 3 0zm20 0a2 2 0 1 1-3 0 2 2 0 0 1 3 0zm20 0a2 2 0 1 1-3 0 2 2 0 0 1 3 0zm20 0a2 2 0 1 1-3 0 2 2 0 0 1 3 0zm-180 20a2 2 0 1 1-3-1 2 2 0 0 1 3 0zm20 0a2 2 0 1 1-3-1 2 2 0 0 1 3 0zm20 0a2 2 0 1 1-3-1 2 2 0 0 1 3 0zm20 0a2 2 0 1 1-3 0 2 2 0 0 1 3 0zm20 0a2 2 0 1 1-3 0 2 2 0 0 1 3 0zm20 0a2 2 0 1 1-3 0 2 2 0 0 1 3 0zm20 0a2 2 0 1 1-3 0 2 2 0 0 1 3 0zm20 0a2 2 0 1 1-3 0 2 2 0 0 1 3 0zm20 0a2 2 0 1 1-3 0 2 2 0 0 1 3 0zm20 0a2 2 0 1 1-3 0 2 2 0 0 1 3 0zm-180 20a2 2 0 1 1-3-1 2 2 0 0 1 3 0zm20 0a2 2 0 1 1-3-1 2 2 0 0 1 3 0zm20 0a2 2 0 1 1-3-1 2 2 0 0 1 3 0zm20 0a2 2 0 1 1-3 0 2 2 0 0 1 3 0zm20 0a2 2 0 1 1-3 0 2 2 0 0 1 3 0zm20 0a2 2 0 1 1-3 0 2 2 0 0 1 3 0zm20 0a2 2 0 1 1-3 0 2 2 0 0 1 3 0zm20 0a2 2 0 1 1-3 0 2 2 0 0 1 3 0zm20 0a2 2 0 1 1-3 0 2 2 0 0 1 3 0zm20 0a2 2 0 1 1-3 0 2 2 0 0 1 3 0zm-180 20a2 2 0 1 1-3-1 2 2 0 0 1 3 0zm20 0a2 2 0 1 1-3-1 2 2 0 0 1 3 0zm20 0a2 2 0 1 1-3-1 2 2 0 0 1 3 0zm20 0a2 2 0 1 1-3 0 2 2 0 0 1 3 0zm20 0a2 2 0 1 1-3 0 2 2 0 0 1 3 0zm20 0a2 2 0 1 1-3 0 2 2 0 0 1 3 0zm20 0a2 2 0 1 1-3 0 2 2 0 0 1 3 0zm20 0a2 2 0 1 1-3 0 2 2 0 0 1 3 0zm20 0a2 2 0 1 1-3 0 2 2 0 0 1 3 0zm20 0a2 2 0 1 1-3 0 2 2 0 0 1 3 0zm-180 20a2 2 0 1 1-3-1 2 2 0 0 1 3 0zm20 0a2 2 0 1 1-3-1 2 2 0 0 1 3 0zm20 0a2 2 0 1 1-3-1 2 2 0 0 1 3 0zm20 0a2 2 0 1 1-3 0 2 2 0 0 1 3 0zm20 0a2 2 0 1 1-3 0 2 2 0 0 1 3 0zm20 0a2 2 0 1 1-3 0 2 2 0 0 1 3 0zm20 0a2 2 0 1 1-3 0 2 2 0 0 1 3 0zm20 0a2 2 0 1 1-3 0 2 2 0 0 1 3 0zm20 0a2 2 0 1 1-3 0 2 2 0 0 1 3 0zm20 0a2 2 0 1 1-3 0 2 2 0 0 1 3 0zM51 250a2 2 0 1 1-3 0 2 2 0 0 1 3 0zm20 0a2 2 0 1 1-3 0 2 2 0 0 1 3 0zm20 0a2 2 0 1 1-3 0 2 2 0 0 1 3 0zm20 0a2 2 0 1 1-3-1 2 2 0 0 1 3 0zm20 0a2 2 0 1 1-3-1 2 2 0 0 1 3 0zm20 0a2 2 0 1 1-3-1 2 2 0 0 1 3 0zm20 0a2 2 0 1 1-3-1 2 2 0 0 1 3 0zm20 0a2 2 0 1 1-3-1 2 2 0 0 1 3 0zm20 0a2 2 0 1 1-3-1 2 2 0 0 1 3 0zm20 0a2 2 0 1 1-3-1 2 2 0 0 1 3 0zm20 0a2 2 0 1 1-3-1 2 2 0 0 1 3 0zm20 0a2 2 0 1 1-3-1 2 2 0 0 1 3 0zm20 0a2 2 0 1 1-3-1 2 2 0 0 1 3 0zm20 0a2 2 0 1 1-3-1 2 2 0 0 1 3 0zm20 0a2 2 0 1 1-3-1 2 2 0 0 1 3 0zM51 270a2 2 0 1 1-3 0 2 2 0 0 1 3 0zm20 0a2 2 0 1 1-3 0 2 2 0 0 1 3 0zm20 0a2 2 0 1 1-3 0 2 2 0 0 1 3 0zm20 0a2 2 0 1 1-3-1 2 2 0 0 1 3 1zm20 0a2 2 0 1 1-3-1 2 2 0 0 1 3 1zm20 0a2 2 0 1 1-3-1 2 2 0 0 1 3 1zm20 0a2 2 0 1 1-3-1 2 2 0 0 1 3 1zm20 0a2 2 0 1 1-3-1 2 2 0 0 1 3 1zm20 0a2 2 0 1 1-3-1 2 2 0 0 1 3 1zm20 0a2 2 0 1 1-3-1 2 2 0 0 1 3 1zm20 0a2 2 0 1 1-3-1 2 2 0 0 1 3 1zm20 0a2 2 0 1 1-3-1 2 2 0 0 1 3 1zm20 0a2 2 0 1 1-3-1 2 2 0 0 1 3 1zm20 0a2 2 0 1 1-3-1 2 2 0 0 1 3 1zm20 0a2 2 0 1 1-3-1 2 2 0 0 1 3 1zM51 290a2 2 0 1 1-3 0 2 2 0 0 1 3 0zm20 0a2 2 0 1 1-3 0 2 2 0 0 1 3 0zm20 0a2 2 0 1 1-3 0 2 2 0 0 1 3 0zm20 0a2 2 0 1 1-3-1 2 2 0 0 1 3 1zm20 0a2 2 0 1 1-3-1 2 2 0 0 1 3 1zm20 0a2 2 0 1 1-3-1 2 2 0 0 1 3 1zm20 0a2 2 0 1 1-3-1 2 2 0 0 1 3 1zm20 0a2 2 0 1 1-3-1 2 2 0 0 1 3 1zm20 0a2 2 0 1 1-3-1 2 2 0 0 1 3 1zm20 0a2 2 0 1 1-3-1 2 2 0 0 1 3 1zm20 0a2 2 0 1 1-3-1 2 2 0 0 1 3 1zm20 0a2 2 0 1 1-3-1 2 2 0 0 1 3 1zm20 0a2 2 0 1 1-3-1 2 2 0 0 1 3 1zm20 0a2 2 0 1 1-3-1 2 2 0 0 1 3 1zm20 0a2 2 0 1 1-3-1 2 2 0 0 1 3 1zM51 310a2 2 0 1 1-3 0 2 2 0 0 1 3 0zm20 0a2 2 0 1 1-3 0 2 2 0 0 1 3 0zm20 0a2 2 0 1 1-3 0 2 2 0 0 1 3 0zm20 0a2 2 0 1 1-3-1 2 2 0 0 1 3 1zm20 0a2 2 0 1 1-3-1 2 2 0 0 1 3 1zm20 0a2 2 0 1 1-3-1 2 2 0 0 1 3 1zm20 0a2 2 0 1 1-3-1 2 2 0 0 1 3 1zm20 0a2 2 0 1 1-3-1 2 2 0 0 1 3 1zm20 0a2 2 0 1 1-3-1 2 2 0 0 1 3 1zm20 0a2 2 0 1 1-3-1 2 2 0 0 1 3 1zm20 0a2 2 0 1 1-3-1 2 2 0 0 1 3 1zm20 0a2 2 0 1 1-3-1 2 2 0 0 1 3 1zm20 0a2 2 0 1 1-3-1 2 2 0 0 1 3 1zm20 0a2 2 0 1 1-3-1 2 2 0 0 1 3 1zm20 0a2 2 0 1 1-3-1 2 2 0 0 1 3 1zM51 330a2 2 0 1 1-3 0 2 2 0 0 1 3 0zm20 0a2 2 0 1 1-3 0 2 2 0 0 1 3 0zm20 0a2 2 0 1 1-3 0 2 2 0 0 1 3 0zm20 0a2 2 0 1 1-3-1 2 2 0 0 1 3 1zm20 0a2 2 0 1 1-3-1 2 2 0 0 1 3 1zm20 0a2 2 0 1 1-3-1 2 2 0 0 1 3 1zm20 0a2 2 0 1 1-3-1 2 2 0 0 1 3 1zm20 0a2 2 0 1 1-3-1 2 2 0 0 1 3 1zm20 0a2 2 0 1 1-3-1 2 2 0 0 1 3 1zm20 0a2 2 0 1 1-3-1 2 2 0 0 1 3 1zm20 0a2 2 0 1 1-3-1 2 2 0 0 1 3 1zm20 0a2 2 0 1 1-3-1 2 2 0 0 1 3 1zm20 0a2 2 0 1 1-3-1 2 2 0 0 1 3 1zm20 0a2 2 0 1 1-3-1 2 2 0 0 1 3 1zm20 0a2 2 0 1 1-3-1 2 2 0 0 1 3 1zM51 350a2 2 0 1 1-3 0 2 2 0 0 1 3 0zm20 0a2 2 0 1 1-3 0 2 2 0 0 1 3 0zm20 0a2 2 0 1 1-3 0 2 2 0 0 1 3 0zm20 0a2 2 0 1 1-3-1 2 2 0 0 1 3 1zm20 0a2 2 0 1 1-3-1 2 2 0 0 1 3 1zm20 0a2 2 0 1 1-3-1 2 2 0 0 1 3 1zm20 0a2 2 0 1 1-3-1 2 2 0 0 1 3 1zm20 0a2 2 0 1 1-3-1 2 2 0 0 1 3 1zm20 0a2 2 0 1 1-3-1 2 2 0 0 1 3 1zm20 0a2 2 0 1 1-3-1 2 2 0 0 1 3 1zm20 0a2 2 0 1 1-3-1 2 2 0 0 1 3 1zm20 0a2 2 0 1 1-3-1 2 2 0 0 1 3 1zm20 0a2 2 0 1 1-3-1 2 2 0 0 1 3 1zm20 0a2 2 0 1 1-3-1 2 2 0 0 1 3 1zm20 0a2 2 0 1 1-3-1 2 2 0 0 1 3 1zM51 370a2 2 0 1 1-3 0 2 2 0 0 1 3 0zm20 0a2 2 0 1 1-3 0 2 2 0 0 1 3 0zm20 0a2 2 0 1 1-3 0 2 2 0 0 1 3 0zm20 0a2 2 0 1 1-3-1 2 2 0 0 1 3 1zm20 0a2 2 0 1 1-3-1 2 2 0 0 1 3 1zm20 0a2 2 0 1 1-3-1 2 2 0 0 1 3 1zm20 0a2 2 0 1 1-3-1 2 2 0 0 1 3 1zm20 0a2 2 0 1 1-3-1 2 2 0 0 1 3 1zm20 0a2 2 0 1 1-3-1 2 2 0 0 1 3 1zm20 0a2 2 0 1 1-3-1 2 2 0 0 1 3 1zm20 0a2 2 0 1 1-3-1 2 2 0 0 1 3 1zm20 0a2 2 0 1 1-3-1 2 2 0 0 1 3 1zm20 0a2 2 0 1 1-3-1 2 2 0 0 1 3 1zm20 0a2 2 0 1 1-3-1 2 2 0 0 1 3 1zm20 0a2 2 0 1 1-3-1 2 2 0 0 1 3 1zM51 390a2 2 0 1 1-3 0 2 2 0 0 1 3 0zm20 0a2 2 0 1 1-3 0 2 2 0 0 1 3 0zm20 0a2 2 0 1 1-3 0 2 2 0 0 1 3 0zm20 0a2 2 0 1 1-3-1 2 2 0 0 1 3 1zm20 0a2 2 0 1 1-3-1 2 2 0 0 1 3 1zm20 0a2 2 0 1 1-3-1 2 2 0 0 1 3 1zm20 0a2 2 0 1 1-3-1 2 2 0 0 1 3 1zm20 0a2 2 0 1 1-3-1 2 2 0 0 1 3 1zm20 0a2 2 0 1 1-3-1 2 2 0 0 1 3 1zm20 0a2 2 0 1 1-3-1 2 2 0 0 1 3 1zm20 0a2 2 0 1 1-3-1 2 2 0 0 1 3 1zm20 0a2 2 0 1 1-3-1 2 2 0 0 1 3 1zm20 0a2 2 0 1 1-3-1 2 2 0 0 1 3 1zm20 0a2 2 0 1 1-3-1 2 2 0 0 1 3 1zm20 0a2 2 0 1 1-3-1 2 2 0 0 1 3 1zM51 410a2 2 0 1 1-3 0 2 2 0 0 1 3 0zm20 0a2 2 0 1 1-3 0 2 2 0 0 1 3 0zm20 0a2 2 0 1 1-3 0 2 2 0 0 1 3 0zm20 0a2 2 0 1 1-3-1 2 2 0 0 1 3 1zm20 0a2 2 0 1 1-3-1 2 2 0 0 1 3 1zm20 0a2 2 0 1 1-3-1 2 2 0 0 1 3 1zm20 0a2 2 0 1 1-3-1 2 2 0 0 1 3 1zm20 0a2 2 0 1 1-3-1 2 2 0 0 1 3 1zm20 0a2 2 0 1 1-3-1 2 2 0 0 1 3 1zm20 0a2 2 0 1 1-3-1 2 2 0 0 1 3 1zm20 0a2 2 0 1 1-3-1 2 2 0 0 1 3 1zm20 0a2 2 0 1 1-3-1 2 2 0 0 1 3 1zm20 0a2 2 0 1 1-3-1 2 2 0 0 1 3 1zm20 0a2 2 0 1 1-3-1 2 2 0 0 1 3 1zm20 0a2 2 0 1 1-3-1 2 2 0 0 1 3 1zM51 430a2 2 0 1 1-3 0 2 2 0 0 1 3 0zm20 0a2 2 0 1 1-3 0 2 2 0 0 1 3 0zm20 0a2 2 0 1 1-3 0 2 2 0 0 1 3 0zm20 0a2 2 0 1 1-3-1 2 2 0 0 1 3 1zm20 0a2 2 0 1 1-3-1 2 2 0 0 1 3 1zm20 0a2 2 0 1 1-3-1 2 2 0 0 1 3 1zm20 0a2 2 0 1 1-3-1 2 2 0 0 1 3 1zm20 0a2 2 0 1 1-3-1 2 2 0 0 1 3 1zm20 0a2 2 0 1 1-3-1 2 2 0 0 1 3 1zm20 0a2 2 0 1 1-3-1 2 2 0 0 1 3 1zm20 0a2 2 0 1 1-3-1 2 2 0 0 1 3 1zm20 0a2 2 0 1 1-3-1 2 2 0 0 1 3 1zm20 0a2 2 0 1 1-3-1 2 2 0 0 1 3 1zm20 0a2 2 0 1 1-3-1 2 2 0 0 1 3 1zm20 0a2 2 0 1 1-3-1 2 2 0 0 1 3 1zM51 450a2 2 0 1 1-3 0 2 2 0 0 1 3 0zm20 0a2 2 0 1 1-3 0 2 2 0 0 1 3 0zm20 0a2 2 0 1 1-3 0 2 2 0 0 1 3 0zm20 0a2 2 0 1 1-3-1 2 2 0 0 1 3 1zm20 0a2 2 0 1 1-3-1 2 2 0 0 1 3 1zm20 0a2 2 0 1 1-3-1 2 2 0 0 1 3 1zm20 0a2 2 0 1 1-3-1 2 2 0 0 1 3 1zm20 0a2 2 0 1 1-3-1 2 2 0 0 1 3 1zm20 0a2 2 0 1 1-3-1 2 2 0 0 1 3 1zm20 0a2 2 0 1 1-3-1 2 2 0 0 1 3 1zm20 0a2 2 0 1 1-3-1 2 2 0 0 1 3 1zm20 0a2 2 0 1 1-3-1 2 2 0 0 1 3 1zm20 0a2 2 0 1 1-3-1 2 2 0 0 1 3 1zm20 0a2 2 0 1 1-3-1 2 2 0 0 1 3 1zm20 0a2 2 0 1 1-3-1 2 2 0 0 1 3 1zM51 470a2 2 0 1 1-3 0 2 2 0 0 1 3 0zm20 0a2 2 0 1 1-3 0 2 2 0 0 1 3 0zm20 0a2 2 0 1 1-3 0 2 2 0 0 1 3 0zm20 0a2 2 0 1 1-3-1 2 2 0 0 1 3 1zm20 0a2 2 0 1 1-3-1 2 2 0 0 1 3 1zm20 0a2 2 0 1 1-3-1 2 2 0 0 1 3 1zm20 0a2 2 0 1 1-3-1 2 2 0 0 1 3 1zm20 0a2 2 0 1 1-3-1 2 2 0 0 1 3 1zm20 0a2 2 0 1 1-3-1 2 2 0 0 1 3 1zm20 0a2 2 0 1 1-3-1 2 2 0 0 1 3 1zm20 0a2 2 0 1 1-3-1 2 2 0 0 1 3 1zm20 0a2 2 0 1 1-3-1 2 2 0 0 1 3 1zm20 0a2 2 0 1 1-3-1 2 2 0 0 1 3 1zm20 0a2 2 0 1 1-3-1 2 2 0 0 1 3 1zm20 0a2 2 0 1 1-3-1 2 2 0 0 1 3 1zm20-220a2 2 0 1 1-3-1 2 2 0 0 1 3 0zm20 0a2 2 0 1 1-3-1 2 2 0 0 1 3 0zm20 0a2 2 0 1 1-3-1 2 2 0 0 1 3 0zm20 0a2 2 0 1 1-3-1 2 2 0 0 1 3 0zm20 0a2 2 0 1 1-3-1 2 2 0 0 1 3 0zm20 0a2 2 0 1 1-3-1 2 2 0 0 1 3 0zm20 0a2 2 0 1 1-3-1 2 2 0 0 1 3 0zm20 0a2 2 0 1 1-3-1 2 2 0 0 1 3 0zm20 0a2 2 0 1 1-3-1 2 2 0 0 1 3 0zm20 0a2 2 0 1 1-3-1 2 2 0 0 1 3 0zm20 0a2 2 0 1 1-3-1 2 2 0 0 1 3 0zm20 0a2 2 0 1 1-3-1 2 2 0 0 1 3 0zm20 0a2 2 0 1 1-3-1 2 2 0 0 1 3 0zm20 0a2 2 0 1 1-3-1 2 2 0 0 1 3 0zm20 0a2 2 0 1 1-3-1 2 2 0 0 1 3 0zm-280 20a2 2 0 1 1-3-1 2 2 0 0 1 3 1zm20 0a2 2 0 1 1-3-1 2 2 0 0 1 3 1zm20 0a2 2 0 1 1-3-1 2 2 0 0 1 3 1zm20 0a2 2 0 1 1-3-1 2 2 0 0 1 3 1zm20 0a2 2 0 1 1-3-1 2 2 0 0 1 3 1zm20 0a2 2 0 1 1-3-1 2 2 0 0 1 3 1zm20 0a2 2 0 1 1-3-1 2 2 0 0 1 3 1zm20 0a2 2 0 1 1-3-1 2 2 0 0 1 3 1zm20 0a2 2 0 1 1-3-1 2 2 0 0 1 3 1zm20 0a2 2 0 1 1-3-1 2 2 0 0 1 3 1zm20 0a2 2 0 1 1-3-1 2 2 0 0 1 3 1zm20 0a2 2 0 1 1-3-1 2 2 0 0 1 3 1zm20 0a2 2 0 1 1-3-1 2 2 0 0 1 3 1zm20 0a2 2 0 1 1-3-1 2 2 0 0 1 3 1zm20 0a2 2 0 1 1-3-1 2 2 0 0 1 3 1zm-280 20a2 2 0 1 1-3-1 2 2 0 0 1 3 1zm20 0a2 2 0 1 1-3-1 2 2 0 0 1 3 1zm20 0a2 2 0 1 1-3-1 2 2 0 0 1 3 1zm20 0a2 2 0 1 1-3-1 2 2 0 0 1 3 1zm20 0a2 2 0 1 1-3-1 2 2 0 0 1 3 1zm20 0a2 2 0 1 1-3-1 2 2 0 0 1 3 1zm20 0a2 2 0 1 1-3-1 2 2 0 0 1 3 1zm20 0a2 2 0 1 1-3-1 2 2 0 0 1 3 1zm20 0a2 2 0 1 1-3-1 2 2 0 0 1 3 1zm20 0a2 2 0 1 1-3-1 2 2 0 0 1 3 1zm20 0a2 2 0 1 1-3-1 2 2 0 0 1 3 1zm20 0a2 2 0 1 1-3-1 2 2 0 0 1 3 1zm20 0a2 2 0 1 1-3-1 2 2 0 0 1 3 1zm20 0a2 2 0 1 1-3-1 2 2 0 0 1 3 1zm20 0a2 2 0 1 1-3-1 2 2 0 0 1 3 1zm-280 20a2 2 0 1 1-3-1 2 2 0 0 1 3 1zm20 0a2 2 0 1 1-3-1 2 2 0 0 1 3 1zm20 0a2 2 0 1 1-3-1 2 2 0 0 1 3 1zm20 0a2 2 0 1 1-3-1 2 2 0 0 1 3 1zm20 0a2 2 0 1 1-3-1 2 2 0 0 1 3 1zm20 0a2 2 0 1 1-3-1 2 2 0 0 1 3 1zm20 0a2 2 0 1 1-3-1 2 2 0 0 1 3 1zm20 0a2 2 0 1 1-3-1 2 2 0 0 1 3 1zm20 0a2 2 0 1 1-3-1 2 2 0 0 1 3 1zm20 0a2 2 0 1 1-3-1 2 2 0 0 1 3 1zm20 0a2 2 0 1 1-3-1 2 2 0 0 1 3 1zm20 0a2 2 0 1 1-3-1 2 2 0 0 1 3 1zm20 0a2 2 0 1 1-3-1 2 2 0 0 1 3 1zm20 0a2 2 0 1 1-3-1 2 2 0 0 1 3 1zm20 0a2 2 0 1 1-3-1 2 2 0 0 1 3 1zm-280 20a2 2 0 1 1-3-1 2 2 0 0 1 3 1zm20 0a2 2 0 1 1-3-1 2 2 0 0 1 3 1zm20 0a2 2 0 1 1-3-1 2 2 0 0 1 3 1zm20 0a2 2 0 1 1-3-1 2 2 0 0 1 3 1zm20 0a2 2 0 1 1-3-1 2 2 0 0 1 3 1zm20 0a2 2 0 1 1-3-1 2 2 0 0 1 3 1zm20 0a2 2 0 1 1-3-1 2 2 0 0 1 3 1zm20 0a2 2 0 1 1-3-1 2 2 0 0 1 3 1zm20 0a2 2 0 1 1-3-1 2 2 0 0 1 3 1zm20 0a2 2 0 1 1-3-1 2 2 0 0 1 3 1zm20 0a2 2 0 1 1-3-1 2 2 0 0 1 3 1zm20 0a2 2 0 1 1-3-1 2 2 0 0 1 3 1zm20 0a2 2 0 1 1-3-1 2 2 0 0 1 3 1zm20 0a2 2 0 1 1-3-1 2 2 0 0 1 3 1zm20 0a2 2 0 1 1-3-1 2 2 0 0 1 3 1zm-280 20a2 2 0 1 1-3-1 2 2 0 0 1 3 1zm20 0a2 2 0 1 1-3-1 2 2 0 0 1 3 1zm20 0a2 2 0 1 1-3-1 2 2 0 0 1 3 1zm20 0a2 2 0 1 1-3-1 2 2 0 0 1 3 1zm20 0a2 2 0 1 1-3-1 2 2 0 0 1 3 1zm20 0a2 2 0 1 1-3-1 2 2 0 0 1 3 1zm20 0a2 2 0 1 1-3-1 2 2 0 0 1 3 1zm20 0a2 2 0 1 1-3-1 2 2 0 0 1 3 1zm20 0a2 2 0 1 1-3-1 2 2 0 0 1 3 1zm20 0a2 2 0 1 1-3-1 2 2 0 0 1 3 1zm20 0a2 2 0 1 1-3-1 2 2 0 0 1 3 1zm20 0a2 2 0 1 1-3-1 2 2 0 0 1 3 1zm20 0a2 2 0 1 1-3-1 2 2 0 0 1 3 1zm20 0a2 2 0 1 1-3-1 2 2 0 0 1 3 1zm20 0a2 2 0 1 1-3-1 2 2 0 0 1 3 1zm-280 20a2 2 0 1 1-3-1 2 2 0 0 1 3 1zm20 0a2 2 0 1 1-3-1 2 2 0 0 1 3 1zm20 0a2 2 0 1 1-3-1 2 2 0 0 1 3 1zm20 0a2 2 0 1 1-3-1 2 2 0 0 1 3 1zm20 0a2 2 0 1 1-3-1 2 2 0 0 1 3 1zm20 0a2 2 0 1 1-3-1 2 2 0 0 1 3 1zm20 0a2 2 0 1 1-3-1 2 2 0 0 1 3 1zm20 0a2 2 0 1 1-3-1 2 2 0 0 1 3 1zm20 0a2 2 0 1 1-3-1 2 2 0 0 1 3 1zm20 0a2 2 0 1 1-3-1 2 2 0 0 1 3 1zm20 0a2 2 0 1 1-3-1 2 2 0 0 1 3 1zm20 0a2 2 0 1 1-3-1 2 2 0 0 1 3 1zm20 0a2 2 0 1 1-3-1 2 2 0 0 1 3 1zm20 0a2 2 0 1 1-3-1 2 2 0 0 1 3 1zm20 0a2 2 0 1 1-3-1 2 2 0 0 1 3 1zm-280 20a2 2 0 1 1-3-1 2 2 0 0 1 3 1zm20 0a2 2 0 1 1-3-1 2 2 0 0 1 3 1zm20 0a2 2 0 1 1-3-1 2 2 0 0 1 3 1zm20 0a2 2 0 1 1-3-1 2 2 0 0 1 3 1zm20 0a2 2 0 1 1-3-1 2 2 0 0 1 3 1zm20 0a2 2 0 1 1-3-1 2 2 0 0 1 3 1zm20 0a2 2 0 1 1-3-1 2 2 0 0 1 3 1zm20 0a2 2 0 1 1-3-1 2 2 0 0 1 3 1zm20 0a2 2 0 1 1-3-1 2 2 0 0 1 3 1zm20 0a2 2 0 1 1-3-1 2 2 0 0 1 3 1zm20 0a2 2 0 1 1-3-1 2 2 0 0 1 3 1zm20 0a2 2 0 1 1-3-1 2 2 0 0 1 3 1zm20 0a2 2 0 1 1-3-1 2 2 0 0 1 3 1zm20 0a2 2 0 1 1-3-1 2 2 0 0 1 3 1zm20 0a2 2 0 1 1-3-1 2 2 0 0 1 3 1zm-280 20a2 2 0 1 1-3-1 2 2 0 0 1 3 1zm20 0a2 2 0 1 1-3-1 2 2 0 0 1 3 1zm20 0a2 2 0 1 1-3-1 2 2 0 0 1 3 1zm20 0a2 2 0 1 1-3-1 2 2 0 0 1 3 1zm20 0a2 2 0 1 1-3-1 2 2 0 0 1 3 1zm20 0a2 2 0 1 1-3-1 2 2 0 0 1 3 1zm20 0a2 2 0 1 1-3-1 2 2 0 0 1 3 1zm20 0a2 2 0 1 1-3-1 2 2 0 0 1 3 1zm20 0a2 2 0 1 1-3-1 2 2 0 0 1 3 1zm20 0a2 2 0 1 1-3-1 2 2 0 0 1 3 1zm20 0a2 2 0 1 1-3-1 2 2 0 0 1 3 1zm20 0a2 2 0 1 1-3-1 2 2 0 0 1 3 1zm20 0a2 2 0 1 1-3-1 2 2 0 0 1 3 1zm20 0a2 2 0 1 1-3-1 2 2 0 0 1 3 1zm20 0a2 2 0 1 1-3-1 2 2 0 0 1 3 1zm-280 20a2 2 0 1 1-3-1 2 2 0 0 1 3 1zm20 0a2 2 0 1 1-3-1 2 2 0 0 1 3 1zm20 0a2 2 0 1 1-3-1 2 2 0 0 1 3 1zm20 0a2 2 0 1 1-3-1 2 2 0 0 1 3 1zm20 0a2 2 0 1 1-3-1 2 2 0 0 1 3 1zm20 0a2 2 0 1 1-3-1 2 2 0 0 1 3 1zm20 0a2 2 0 1 1-3-1 2 2 0 0 1 3 1zm20 0a2 2 0 1 1-3-1 2 2 0 0 1 3 1zm20 0a2 2 0 1 1-3-1 2 2 0 0 1 3 1zm20 0a2 2 0 1 1-3-1 2 2 0 0 1 3 1zm20 0a2 2 0 1 1-3-1 2 2 0 0 1 3 1zm20 0a2 2 0 1 1-3-1 2 2 0 0 1 3 1zm20 0a2 2 0 1 1-3-1 2 2 0 0 1 3 1zm20 0a2 2 0 1 1-3-1 2 2 0 0 1 3 1zm20 0a2 2 0 1 1-3-1 2 2 0 0 1 3 1zm-280 20a2 2 0 1 1-3-1 2 2 0 0 1 3 1zm20 0a2 2 0 1 1-3-1 2 2 0 0 1 3 1zm20 0a2 2 0 1 1-3-1 2 2 0 0 1 3 1zm20 0a2 2 0 1 1-3-1 2 2 0 0 1 3 1zm20 0a2 2 0 1 1-3-1 2 2 0 0 1 3 1zm20 0a2 2 0 1 1-3-1 2 2 0 0 1 3 1zm20 0a2 2 0 1 1-3-1 2 2 0 0 1 3 1zm20 0a2 2 0 1 1-3-1 2 2 0 0 1 3 1zm20 0a2 2 0 1 1-3-1 2 2 0 0 1 3 1zm20 0a2 2 0 1 1-3-1 2 2 0 0 1 3 1zm20 0a2 2 0 1 1-3-1 2 2 0 0 1 3 1zm20 0a2 2 0 1 1-3-1 2 2 0 0 1 3 1zm20 0a2 2 0 1 1-3-1 2 2 0 0 1 3 1zm20 0a2 2 0 1 1-3-1 2 2 0 0 1 3 1zm20 0a2 2 0 1 1-3-1 2 2 0 0 1 3 1zm-280 20a2 2 0 1 1-3-1 2 2 0 0 1 3 1zm20 0a2 2 0 1 1-3-1 2 2 0 0 1 3 1zm20 0a2 2 0 1 1-3-1 2 2 0 0 1 3 1zm20 0a2 2 0 1 1-3-1 2 2 0 0 1 3 1zm20 0a2 2 0 1 1-3-1 2 2 0 0 1 3 1zm20 0a2 2 0 1 1-3-1 2 2 0 0 1 3 1zm20 0a2 2 0 1 1-3-1 2 2 0 0 1 3 1zm20 0a2 2 0 1 1-3-1 2 2 0 0 1 3 1zm20 0a2 2 0 1 1-3-1 2 2 0 0 1 3 1zm20 0a2 2 0 1 1-3-1 2 2 0 0 1 3 1zm20 0a2 2 0 1 1-3-1 2 2 0 0 1 3 1zm20 0a2 2 0 1 1-3-1 2 2 0 0 1 3 1zm20 0a2 2 0 1 1-3-1 2 2 0 0 1 3 1zm20 0a2 2 0 1 1-3-1 2 2 0 0 1 3 1zm20 0a2 2 0 1 1-3-1 2 2 0 0 1 3 1zm20-220a2 2 0 1 1-3-1 2 2 0 0 1 3 0zm20 0a2 2 0 1 1-3-1 2 2 0 0 1 3 0zm20 0a2 2 0 1 1-3-1 2 2 0 0 1 3 0zm20 0a2 2 0 1 1-3-1 2 2 0 0 1 3 0zm20 0a2 2 0 1 1-3-1 2 2 0 0 1 3 0zm20 0a2 2 0 1 1-3-1 2 2 0 0 1 3 0zm20 0a2 2 0 1 1-3-1 2 2 0 0 1 3 0zm20 0a2 2 0 1 1-3-1 2 2 0 0 1 3 0zm20 0a2 2 0 1 1-3-1 2 2 0 0 1 3 0zm20 0a2 2 0 1 1-3-1 2 2 0 0 1 3 0zm20 0a2 2 0 1 1-3-1 2 2 0 0 1 3 0zm20 0a2 2 0 1 1-3-1 2 2 0 0 1 3 0zm20 0a2 2 0 1 1-3-1 2 2 0 0 1 3 0zm20 0a2 2 0 1 1-3-1 2 2 0 0 1 3 0zm20 0a2 2 0 1 1-3-1 2 2 0 0 1 3 0zm-280 20a2 2 0 1 1-3-1 2 2 0 0 1 3 1zm20 0a2 2 0 1 1-3-1 2 2 0 0 1 3 1zm20 0a2 2 0 1 1-3-1 2 2 0 0 1 3 1zm20 0a2 2 0 1 1-3-1 2 2 0 0 1 3 1zm20 0a2 2 0 1 1-3-1 2 2 0 0 1 3 1zm20 0a2 2 0 1 1-3-1 2 2 0 0 1 3 1zm20 0a2 2 0 1 1-3-1 2 2 0 0 1 3 1zm20 0a2 2 0 1 1-3-1 2 2 0 0 1 3 1zm20 0a2 2 0 1 1-3-1 2 2 0 0 1 3 1zm20 0a2 2 0 1 1-3-1 2 2 0 0 1 3 1zm20 0a2 2 0 1 1-3-1 2 2 0 0 1 3 1zm20 0a2 2 0 1 1-3-1 2 2 0 0 1 3 1zm20 0a2 2 0 1 1-3-1 2 2 0 0 1 3 1zm20 0a2 2 0 1 1-3-1 2 2 0 0 1 3 1zm20 0a2 2 0 1 1-3-1 2 2 0 0 1 3 1zm-280 20a2 2 0 1 1-3-1 2 2 0 0 1 3 1zm20 0a2 2 0 1 1-3-1 2 2 0 0 1 3 1zm20 0a2 2 0 1 1-3-1 2 2 0 0 1 3 1zm20 0a2 2 0 1 1-3-1 2 2 0 0 1 3 1zm20 0a2 2 0 1 1-3-1 2 2 0 0 1 3 1zm20 0a2 2 0 1 1-3-1 2 2 0 0 1 3 1zm20 0a2 2 0 1 1-3-1 2 2 0 0 1 3 1zm20 0a2 2 0 1 1-3-1 2 2 0 0 1 3 1zm20 0a2 2 0 1 1-3-1 2 2 0 0 1 3 1zm20 0a2 2 0 1 1-3-1 2 2 0 0 1 3 1zm20 0a2 2 0 1 1-3-1 2 2 0 0 1 3 1zm20 0a2 2 0 1 1-3-1 2 2 0 0 1 3 1zm20 0a2 2 0 1 1-3-1 2 2 0 0 1 3 1zm20 0a2 2 0 1 1-3-1 2 2 0 0 1 3 1zm20 0a2 2 0 1 1-3-1 2 2 0 0 1 3 1zm-280 20a2 2 0 1 1-3-1 2 2 0 0 1 3 1zm20 0a2 2 0 1 1-3-1 2 2 0 0 1 3 1zm20 0a2 2 0 1 1-3-1 2 2 0 0 1 3 1zm20 0a2 2 0 1 1-3-1 2 2 0 0 1 3 1zm20 0a2 2 0 1 1-3-1 2 2 0 0 1 3 1zm20 0a2 2 0 1 1-3-1 2 2 0 0 1 3 1zm20 0a2 2 0 1 1-3-1 2 2 0 0 1 3 1zm20 0a2 2 0 1 1-3-1 2 2 0 0 1 3 1zm20 0a2 2 0 1 1-3-1 2 2 0 0 1 3 1zm20 0a2 2 0 1 1-3-1 2 2 0 0 1 3 1zm20 0a2 2 0 1 1-3-1 2 2 0 0 1 3 1zm20 0a2 2 0 1 1-3-1 2 2 0 0 1 3 1zm20 0a2 2 0 1 1-3-1 2 2 0 0 1 3 1zm20 0a2 2 0 1 1-3-1 2 2 0 0 1 3 1zm20 0a2 2 0 1 1-3-1 2 2 0 0 1 3 1zm-280 20a2 2 0 1 1-3-1 2 2 0 0 1 3 1zm20 0a2 2 0 1 1-3-1 2 2 0 0 1 3 1zm20 0a2 2 0 1 1-3-1 2 2 0 0 1 3 1zm20 0a2 2 0 1 1-3-1 2 2 0 0 1 3 1zm20 0a2 2 0 1 1-3-1 2 2 0 0 1 3 1zm20 0a2 2 0 1 1-3-1 2 2 0 0 1 3 1zm20 0a2 2 0 1 1-3-1 2 2 0 0 1 3 1zm20 0a2 2 0 1 1-3-1 2 2 0 0 1 3 1zm20 0a2 2 0 1 1-3-1 2 2 0 0 1 3 1zm20 0a2 2 0 1 1-3-1 2 2 0 0 1 3 1zm20 0a2 2 0 1 1-3-1 2 2 0 0 1 3 1zm20 0a2 2 0 1 1-3-1 2 2 0 0 1 3 1zm20 0a2 2 0 1 1-3-1 2 2 0 0 1 3 1zm20 0a2 2 0 1 1-3-1 2 2 0 0 1 3 1zm20 0a2 2 0 1 1-3-1 2 2 0 0 1 3 1zm-280 20a2 2 0 1 1-3-1 2 2 0 0 1 3 1zm20 0a2 2 0 1 1-3-1 2 2 0 0 1 3 1zm20 0a2 2 0 1 1-3-1 2 2 0 0 1 3 1zm20 0a2 2 0 1 1-3-1 2 2 0 0 1 3 1zm20 0a2 2 0 1 1-3-1 2 2 0 0 1 3 1zm20 0a2 2 0 1 1-3-1 2 2 0 0 1 3 1zm20 0a2 2 0 1 1-3-1 2 2 0 0 1 3 1zm20 0a2 2 0 1 1-3-1 2 2 0 0 1 3 1zm20 0a2 2 0 1 1-3-1 2 2 0 0 1 3 1zm20 0a2 2 0 1 1-3-1 2 2 0 0 1 3 1zm20 0a2 2 0 1 1-3-1 2 2 0 0 1 3 1zm20 0a2 2 0 1 1-3-1 2 2 0 0 1 3 1zm20 0a2 2 0 1 1-3-1 2 2 0 0 1 3 1zm20 0a2 2 0 1 1-3-1 2 2 0 0 1 3 1zm20 0a2 2 0 1 1-3-1 2 2 0 0 1 3 1zm-280 20a2 2 0 1 1-3-1 2 2 0 0 1 3 1zm20 0a2 2 0 1 1-3-1 2 2 0 0 1 3 1zm20 0a2 2 0 1 1-3-1 2 2 0 0 1 3 1zm20 0a2 2 0 1 1-3-1 2 2 0 0 1 3 1zm20 0a2 2 0 1 1-3-1 2 2 0 0 1 3 1zm20 0a2 2 0 1 1-3-1 2 2 0 0 1 3 1zm20 0a2 2 0 1 1-3-1 2 2 0 0 1 3 1zm20 0a2 2 0 1 1-3-1 2 2 0 0 1 3 1zm20 0a2 2 0 1 1-3-1 2 2 0 0 1 3 1zm20 0a2 2 0 1 1-3-1 2 2 0 0 1 3 1zm20 0a2 2 0 1 1-3-1 2 2 0 0 1 3 1zm20 0a2 2 0 1 1-3-1 2 2 0 0 1 3 1zm20 0a2 2 0 1 1-3-1 2 2 0 0 1 3 1zm20 0a2 2 0 1 1-3-1 2 2 0 0 1 3 1zm20 0a2 2 0 1 1-3-1 2 2 0 0 1 3 1zm-280 20a2 2 0 1 1-3-1 2 2 0 0 1 3 1zm20 0a2 2 0 1 1-3-1 2 2 0 0 1 3 1zm20 0a2 2 0 1 1-3-1 2 2 0 0 1 3 1zm20 0a2 2 0 1 1-3-1 2 2 0 0 1 3 1zm20 0a2 2 0 1 1-3-1 2 2 0 0 1 3 1zm20 0a2 2 0 1 1-3-1 2 2 0 0 1 3 1zm20 0a2 2 0 1 1-3-1 2 2 0 0 1 3 1zm20 0a2 2 0 1 1-3-1 2 2 0 0 1 3 1zm20 0a2 2 0 1 1-3-1 2 2 0 0 1 3 1zm20 0a2 2 0 1 1-3-1 2 2 0 0 1 3 1zm20 0a2 2 0 1 1-3-1 2 2 0 0 1 3 1zm20 0a2 2 0 1 1-3-1 2 2 0 0 1 3 1zm20 0a2 2 0 1 1-3-1 2 2 0 0 1 3 1zm20 0a2 2 0 1 1-3-1 2 2 0 0 1 3 1zm20 0a2 2 0 1 1-3-1 2 2 0 0 1 3 1zm-280 20a2 2 0 1 1-3-1 2 2 0 0 1 3 1zm20 0a2 2 0 1 1-3-1 2 2 0 0 1 3 1zm20 0a2 2 0 1 1-3-1 2 2 0 0 1 3 1zm20 0a2 2 0 1 1-3-1 2 2 0 0 1 3 1zm20 0a2 2 0 1 1-3-1 2 2 0 0 1 3 1zm20 0a2 2 0 1 1-3-1 2 2 0 0 1 3 1zm20 0a2 2 0 1 1-3-1 2 2 0 0 1 3 1zm20 0a2 2 0 1 1-3-1 2 2 0 0 1 3 1zm20 0a2 2 0 1 1-3-1 2 2 0 0 1 3 1zm20 0a2 2 0 1 1-3-1 2 2 0 0 1 3 1zm20 0a2 2 0 1 1-3-1 2 2 0 0 1 3 1zm20 0a2 2 0 1 1-3-1 2 2 0 0 1 3 1zm20 0a2 2 0 1 1-3-1 2 2 0 0 1 3 1zm20 0a2 2 0 1 1-3-1 2 2 0 0 1 3 1zm20 0a2 2 0 1 1-3-1 2 2 0 0 1 3 1zm-280 20a2 2 0 1 1-3-1 2 2 0 0 1 3 1zm20 0a2 2 0 1 1-3-1 2 2 0 0 1 3 1zm20 0a2 2 0 1 1-3-1 2 2 0 0 1 3 1zm20 0a2 2 0 1 1-3-1 2 2 0 0 1 3 1zm20 0a2 2 0 1 1-3-1 2 2 0 0 1 3 1zm20 0a2 2 0 1 1-3-1 2 2 0 0 1 3 1zm20 0a2 2 0 1 1-3-1 2 2 0 0 1 3 1zm20 0a2 2 0 1 1-3-1 2 2 0 0 1 3 1zm20 0a2 2 0 1 1-3-1 2 2 0 0 1 3 1zm20 0a2 2 0 1 1-3-1 2 2 0 0 1 3 1zm20 0a2 2 0 1 1-3-1 2 2 0 0 1 3 1zm20 0a2 2 0 1 1-3-1 2 2 0 0 1 3 1zm20 0a2 2 0 1 1-3-1 2 2 0 0 1 3 1zm20 0a2 2 0 1 1-3-1 2 2 0 0 1 3 1zm20 0a2 2 0 1 1-3-1 2 2 0 0 1 3 1zm-280 20a2 2 0 1 1-3-1 2 2 0 0 1 3 1zm20 0a2 2 0 1 1-3-1 2 2 0 0 1 3 1zm20 0a2 2 0 1 1-3-1 2 2 0 0 1 3 1zm20 0a2 2 0 1 1-3-1 2 2 0 0 1 3 1zm20 0a2 2 0 1 1-3-1 2 2 0 0 1 3 1zm20 0a2 2 0 1 1-3-1 2 2 0 0 1 3 1zm20 0a2 2 0 1 1-3-1 2 2 0 0 1 3 1zm20 0a2 2 0 1 1-3-1 2 2 0 0 1 3 1zm20 0a2 2 0 1 1-3-1 2 2 0 0 1 3 1zm20 0a2 2 0 1 1-3-1 2 2 0 0 1 3 1zm20 0a2 2 0 1 1-3-1 2 2 0 0 1 3 1zm20 0a2 2 0 1 1-3-1 2 2 0 0 1 3 1zm20 0a2 2 0 1 1-3-1 2 2 0 0 1 3 1zm20 0a2 2 0 1 1-3-1 2 2 0 0 1 3 1zm20 0a2 2 0 1 1-3-1 2 2 0 0 1 3 1zm-280 20a2 2 0 1 1-3-1 2 2 0 0 1 3 1zm20 0a2 2 0 1 1-3-1 2 2 0 0 1 3 1zm20 0a2 2 0 1 1-3-1 2 2 0 0 1 3 1zm20 0a2 2 0 1 1-3-1 2 2 0 0 1 3 1zm20 0a2 2 0 1 1-3-1 2 2 0 0 1 3 1zm20 0a2 2 0 1 1-3-1 2 2 0 0 1 3 1zm20 0a2 2 0 1 1-3-1 2 2 0 0 1 3 1zm20 0a2 2 0 1 1-3-1 2 2 0 0 1 3 1zm20 0a2 2 0 1 1-3-1 2 2 0 0 1 3 1zm20 0a2 2 0 1 1-3-1 2 2 0 0 1 3 1zm20 0a2 2 0 1 1-3-1 2 2 0 0 1 3 1zm20 0a2 2 0 1 1-3-1 2 2 0 0 1 3 1zm20 0a2 2 0 1 1-3-1 2 2 0 0 1 3 1zm20 0a2 2 0 1 1-3-1 2 2 0 0 1 3 1zm20 0a2 2 0 1 1-3-1 2 2 0 0 1 3 1zm20-220a2 2 0 1 1-3-1 2 2 0 0 1 3 0zm20 0a2 2 0 1 1-3-1 2 2 0 0 1 3 0zm20 0a2 2 0 1 1-3-1 2 2 0 0 1 3 0zm20 0a2 2 0 1 1-3 0 2 2 0 0 1 3 0zm20 0a2 2 0 1 1-3 0 2 2 0 0 1 3 0zm20 0a2 2 0 1 1-3 0 2 2 0 0 1 3 0zm20 0a2 2 0 1 1-3 0 2 2 0 0 1 3 0zm20 0a2 2 0 1 1-3 0 2 2 0 0 1 3 0zm20 0a2 2 0 1 1-3 0 2 2 0 0 1 3 0zm20 0a2 2 0 1 1-3 0 2 2 0 0 1 3 0zm-180 20a2 2 0 1 1-3-1 2 2 0 0 1 3 1zm20 0a2 2 0 1 1-3-1 2 2 0 0 1 3 1zm20 0a2 2 0 1 1-3-1 2 2 0 0 1 3 1zm20 0a2 2 0 1 1-3 0 2 2 0 0 1 3-1zm20 0a2 2 0 1 1-3 0 2 2 0 0 1 3-1zm20 0a2 2 0 1 1-3 0 2 2 0 0 1 3-1zm20 0a2 2 0 1 1-3 0 2 2 0 0 1 3-1zm20 0a2 2 0 1 1-3 0 2 2 0 0 1 3-1zm20 0a2 2 0 1 1-3 0 2 2 0 0 1 3-1zm20 0a2 2 0 1 1-3 0 2 2 0 0 1 3-1zm-180 20a2 2 0 1 1-3-1 2 2 0 0 1 3 1zm20 0a2 2 0 1 1-3-1 2 2 0 0 1 3 1zm20 0a2 2 0 1 1-3-1 2 2 0 0 1 3 1zm20 0a2 2 0 1 1-3 0 2 2 0 0 1 3-1zm20 0a2 2 0 1 1-3 0 2 2 0 0 1 3-1zm20 0a2 2 0 1 1-3 0 2 2 0 0 1 3-1zm20 0a2 2 0 1 1-3 0 2 2 0 0 1 3-1zm20 0a2 2 0 1 1-3 0 2 2 0 0 1 3-1zm20 0a2 2 0 1 1-3 0 2 2 0 0 1 3-1zm20 0a2 2 0 1 1-3 0 2 2 0 0 1 3-1zm-180 20a2 2 0 1 1-3-1 2 2 0 0 1 3 1zm20 0a2 2 0 1 1-3-1 2 2 0 0 1 3 1zm20 0a2 2 0 1 1-3-1 2 2 0 0 1 3 1zm20 0a2 2 0 1 1-3 0 2 2 0 0 1 3-1zm20 0a2 2 0 1 1-3 0 2 2 0 0 1 3-1zm20 0a2 2 0 1 1-3 0 2 2 0 0 1 3-1zm20 0a2 2 0 1 1-3 0 2 2 0 0 1 3-1zm20 0a2 2 0 1 1-3 0 2 2 0 0 1 3-1zm20 0a2 2 0 1 1-3 0 2 2 0 0 1 3-1zm20 0a2 2 0 1 1-3 0 2 2 0 0 1 3-1zm-180 20a2 2 0 1 1-3-1 2 2 0 0 1 3 1zm20 0a2 2 0 1 1-3-1 2 2 0 0 1 3 1zm20 0a2 2 0 1 1-3-1 2 2 0 0 1 3 1zm20 0a2 2 0 1 1-3 0 2 2 0 0 1 3-1zm20 0a2 2 0 1 1-3 0 2 2 0 0 1 3-1zm20 0a2 2 0 1 1-3 0 2 2 0 0 1 3-1zm20 0a2 2 0 1 1-3 0 2 2 0 0 1 3-1zm20 0a2 2 0 1 1-3 0 2 2 0 0 1 3-1zm20 0a2 2 0 1 1-3 0 2 2 0 0 1 3-1zm20 0a2 2 0 1 1-3 0 2 2 0 0 1 3-1zm-180 20a2 2 0 1 1-3-1 2 2 0 0 1 3 1zm20 0a2 2 0 1 1-3-1 2 2 0 0 1 3 1zm20 0a2 2 0 1 1-3-1 2 2 0 0 1 3 1zm20 0a2 2 0 1 1-3 0 2 2 0 0 1 3-1zm20 0a2 2 0 1 1-3 0 2 2 0 0 1 3-1zm20 0a2 2 0 1 1-3 0 2 2 0 0 1 3-1zm20 0a2 2 0 1 1-3 0 2 2 0 0 1 3-1zm20 0a2 2 0 1 1-3 0 2 2 0 0 1 3-1zm20 0a2 2 0 1 1-3 0 2 2 0 0 1 3-1zm20 0a2 2 0 1 1-3 0 2 2 0 0 1 3-1zm-180 20a2 2 0 1 1-3-1 2 2 0 0 1 3 1zm20 0a2 2 0 1 1-3-1 2 2 0 0 1 3 1zm20 0a2 2 0 1 1-3-1 2 2 0 0 1 3 1zm20 0a2 2 0 1 1-3 0 2 2 0 0 1 3-1zm20 0a2 2 0 1 1-3 0 2 2 0 0 1 3-1zm20 0a2 2 0 1 1-3 0 2 2 0 0 1 3-1zm20 0a2 2 0 1 1-3 0 2 2 0 0 1 3-1zm20 0a2 2 0 1 1-3 0 2 2 0 0 1 3-1zm20 0a2 2 0 1 1-3 0 2 2 0 0 1 3-1zm20 0a2 2 0 1 1-3 0 2 2 0 0 1 3-1zm-180 20a2 2 0 1 1-3-1 2 2 0 0 1 3 1zm20 0a2 2 0 1 1-3-1 2 2 0 0 1 3 1zm20 0a2 2 0 1 1-3-1 2 2 0 0 1 3 1zm20 0a2 2 0 1 1-3 0 2 2 0 0 1 3-1zm20 0a2 2 0 1 1-3 0 2 2 0 0 1 3-1zm20 0a2 2 0 1 1-3 0 2 2 0 0 1 3-1zm20 0a2 2 0 1 1-3 0 2 2 0 0 1 3-1zm20 0a2 2 0 1 1-3 0 2 2 0 0 1 3-1zm20 0a2 2 0 1 1-3 0 2 2 0 0 1 3-1zm20 0a2 2 0 1 1-3 0 2 2 0 0 1 3-1zm-180 20a2 2 0 1 1-3-1 2 2 0 0 1 3 1zm20 0a2 2 0 1 1-3-1 2 2 0 0 1 3 1zm20 0a2 2 0 1 1-3-1 2 2 0 0 1 3 1zm20 0a2 2 0 1 1-3 0 2 2 0 0 1 3-1zm20 0a2 2 0 1 1-3 0 2 2 0 0 1 3-1zm20 0a2 2 0 1 1-3 0 2 2 0 0 1 3-1zm20 0a2 2 0 1 1-3 0 2 2 0 0 1 3-1zm20 0a2 2 0 1 1-3 0 2 2 0 0 1 3-1zm20 0a2 2 0 1 1-3 0 2 2 0 0 1 3-1zm20 0a2 2 0 1 1-3 0 2 2 0 0 1 3-1zm-180 20a2 2 0 1 1-3-1 2 2 0 0 1 3 1zm20 0a2 2 0 1 1-3-1 2 2 0 0 1 3 1zm20 0a2 2 0 1 1-3-1 2 2 0 0 1 3 1zm20 0a2 2 0 1 1-3 0 2 2 0 0 1 3-1zm20 0a2 2 0 1 1-3 0 2 2 0 0 1 3-1zm20 0a2 2 0 1 1-3 0 2 2 0 0 1 3-1zm20 0a2 2 0 1 1-3 0 2 2 0 0 1 3-1zm20 0a2 2 0 1 1-3 0 2 2 0 0 1 3-1zm20 0a2 2 0 1 1-3 0 2 2 0 0 1 3-1zm20 0a2 2 0 1 1-3 0 2 2 0 0 1 3-1zm-180 20a2 2 0 1 1-3-1 2 2 0 0 1 3 1zm20 0a2 2 0 1 1-3-1 2 2 0 0 1 3 1zm20 0a2 2 0 1 1-3-1 2 2 0 0 1 3 1zm20 0a2 2 0 1 1-3 0 2 2 0 0 1 3-1zm20 0a2 2 0 1 1-3 0 2 2 0 0 1 3-1zm20 0a2 2 0 1 1-3 0 2 2 0 0 1 3-1zm20 0a2 2 0 1 1-3 0 2 2 0 0 1 3-1zm20 0a2 2 0 1 1-3 0 2 2 0 0 1 3-1zm20 0a2 2 0 1 1-3 0 2 2 0 0 1 3-1zm20 0a2 2 0 1 1-3 0 2 2 0 0 1 3-1zm-180 20a2 2 0 1 1-3-1 2 2 0 0 1 3 1zm20 0a2 2 0 1 1-3-1 2 2 0 0 1 3 1zm20 0a2 2 0 1 1-3-1 2 2 0 0 1 3 1zm20 0a2 2 0 1 1-3 0 2 2 0 0 1 3-1zm20 0a2 2 0 1 1-3 0 2 2 0 0 1 3-1zm20 0a2 2 0 1 1-3 0 2 2 0 0 1 3-1zm20 0a2 2 0 1 1-3 0 2 2 0 0 1 3-1zm20 0a2 2 0 1 1-3 0 2 2 0 0 1 3-1zm20 0a2 2 0 1 1-3 0 2 2 0 0 1 3-1zm20 0a2 2 0 1 1-3 0 2 2 0 0 1 3-1zM51 490a2 2 0 1 1-3 0 2 2 0 0 1 3 0zm20 0a2 2 0 1 1-3 0 2 2 0 0 1 3 0zm20 0a2 2 0 1 1-3 0 2 2 0 0 1 3 0zm20 0a2 2 0 1 1-3-1 2 2 0 0 1 3 1zm20 0a2 2 0 1 1-3-1 2 2 0 0 1 3 1zm20 0a2 2 0 1 1-3-1 2 2 0 0 1 3 1zm20 0a2 2 0 1 1-3-1 2 2 0 0 1 3 1zm20 0a2 2 0 1 1-3-1 2 2 0 0 1 3 1zm20 0a2 2 0 1 1-3-1 2 2 0 0 1 3 1zm20 0a2 2 0 1 1-3-1 2 2 0 0 1 3 1zm20 0a2 2 0 1 1-3-1 2 2 0 0 1 3 1zm20 0a2 2 0 1 1-3-1 2 2 0 0 1 3 1zm20 0a2 2 0 1 1-3-1 2 2 0 0 1 3 1zm20 0a2 2 0 1 1-3-1 2 2 0 0 1 3 1zm20 0a2 2 0 1 1-3-1 2 2 0 0 1 3 1zm20 0a2 2 0 1 1-3-1 2 2 0 0 1 3 1zm20 0a2 2 0 1 1-3-1 2 2 0 0 1 3 1zm20 0a2 2 0 1 1-3-1 2 2 0 0 1 3 1zm20 0a2 2 0 1 1-3-1 2 2 0 0 1 3 1zm20 0a2 2 0 1 1-3-1 2 2 0 0 1 3 1zm20 0a2 2 0 1 1-3-1 2 2 0 0 1 3 1zm20 0a2 2 0 1 1-3-1 2 2 0 0 1 3 1zm20 0a2 2 0 1 1-3-1 2 2 0 0 1 3 1zm20 0a2 2 0 1 1-3-1 2 2 0 0 1 3 1zm20 0a2 2 0 1 1-3-1 2 2 0 0 1 3 1zm20 0a2 2 0 1 1-3-1 2 2 0 0 1 3 1zm20 0a2 2 0 1 1-3-1 2 2 0 0 1 3 1zm20 0a2 2 0 1 1-3-1 2 2 0 0 1 3 1zm20 0a2 2 0 1 1-3-1 2 2 0 0 1 3 1zm20 0a2 2 0 1 1-3-1 2 2 0 0 1 3 1zm20 0a2 2 0 1 1-3-1 2 2 0 0 1 3 1zm20 0a2 2 0 1 1-3-1 2 2 0 0 1 3 1zm20 0a2 2 0 1 1-3-1 2 2 0 0 1 3 1zm20 0a2 2 0 1 1-3-1 2 2 0 0 1 3 1zm20 0a2 2 0 1 1-3-1 2 2 0 0 1 3 1zm20 0a2 2 0 1 1-3-1 2 2 0 0 1 3 1zm20 0a2 2 0 1 1-3-1 2 2 0 0 1 3 1zm20 0a2 2 0 1 1-3-1 2 2 0 0 1 3 1zm20 0a2 2 0 1 1-3-1 2 2 0 0 1 3 1zm20 0a2 2 0 1 1-3-1 2 2 0 0 1 3 1zm20 0a2 2 0 1 1-3-1 2 2 0 0 1 3 1zm20 0a2 2 0 1 1-3-1 2 2 0 0 1 3 1zm20 0a2 2 0 1 1-3-1 2 2 0 0 1 3 1zm20 0a2 2 0 1 1-3-1 2 2 0 0 1 3 1zm20 0a2 2 0 1 1-3-1 2 2 0 0 1 3 1zm20 0a2 2 0 1 1-3-1 2 2 0 0 1 3 1zm20 0a2 2 0 1 1-3-1 2 2 0 0 1 3 1zm20 0a2 2 0 1 1-3-1 2 2 0 0 1 3 1zm20 0a2 2 0 1 1-3 0 2 2 0 0 1 3-1zm20 0a2 2 0 1 1-3 0 2 2 0 0 1 3-1zm20 0a2 2 0 1 1-3 0 2 2 0 0 1 3-1zm20 0a2 2 0 1 1-3 0 2 2 0 0 1 3-1zm20 0a2 2 0 1 1-3 0 2 2 0 0 1 3-1zm20 0a2 2 0 1 1-3 0 2 2 0 0 1 3-1zm20 0a2 2 0 1 1-3 0 2 2 0 0 1 3-1zM51 510a2 2 0 1 1-3 0 2 2 0 0 1 3 0zm20 0a2 2 0 1 1-3 0 2 2 0 0 1 3 0zm20 0a2 2 0 1 1-3 0 2 2 0 0 1 3 0zm20 0a2 2 0 1 1-3-1 2 2 0 0 1 3 1zm20 0a2 2 0 1 1-3-1 2 2 0 0 1 3 1zm20 0a2 2 0 1 1-3-1 2 2 0 0 1 3 1zm20 0a2 2 0 1 1-3-1 2 2 0 0 1 3 1zm20 0a2 2 0 1 1-3-1 2 2 0 0 1 3 1zm20 0a2 2 0 1 1-3-1 2 2 0 0 1 3 1zm20 0a2 2 0 1 1-3-1 2 2 0 0 1 3 1zm20 0a2 2 0 1 1-3-1 2 2 0 0 1 3 1zm20 0a2 2 0 1 1-3-1 2 2 0 0 1 3 1zm20 0a2 2 0 1 1-3-1 2 2 0 0 1 3 1zm20 0a2 2 0 1 1-3-1 2 2 0 0 1 3 1zm20 0a2 2 0 1 1-3-1 2 2 0 0 1 3 1zM51 530a2 2 0 1 1-3 0 2 2 0 0 1 3 0zm20 0a2 2 0 1 1-3 0 2 2 0 0 1 3 0zm20 0a2 2 0 1 1-3 0 2 2 0 0 1 3 0zm20 0a2 2 0 1 1-3-1 2 2 0 0 1 3 1zm20 0a2 2 0 1 1-3-1 2 2 0 0 1 3 1zm20 0a2 2 0 1 1-3-1 2 2 0 0 1 3 1zm20 0a2 2 0 1 1-3-1 2 2 0 0 1 3 1zm20 0a2 2 0 1 1-3-1 2 2 0 0 1 3 1zm20 0a2 2 0 1 1-3-1 2 2 0 0 1 3 1zm20 0a2 2 0 1 1-3-1 2 2 0 0 1 3 1zm20 0a2 2 0 1 1-3-1 2 2 0 0 1 3 1zm20 0a2 2 0 1 1-3-1 2 2 0 0 1 3 1zm20 0a2 2 0 1 1-3-1 2 2 0 0 1 3 1zm20 0a2 2 0 1 1-3-1 2 2 0 0 1 3 1zm20 0a2 2 0 1 1-3-1 2 2 0 0 1 3 1zM51 550a2 2 0 1 1-3 0 2 2 0 0 1 3 0zm20 0a2 2 0 1 1-3 0 2 2 0 0 1 3 0zm20 0a2 2 0 1 1-3 0 2 2 0 0 1 3 0zm20 0a2 2 0 1 1-3-1 2 2 0 0 1 3 1zm20 0a2 2 0 1 1-3-1 2 2 0 0 1 3 1zm20 0a2 2 0 1 1-3-1 2 2 0 0 1 3 1zm20 0a2 2 0 1 1-3-1 2 2 0 0 1 3 1zm20 0a2 2 0 1 1-3-1 2 2 0 0 1 3 1zm20 0a2 2 0 1 1-3-1 2 2 0 0 1 3 1zm20 0a2 2 0 1 1-3-1 2 2 0 0 1 3 1zm20 0a2 2 0 1 1-3-1 2 2 0 0 1 3 1zm20 0a2 2 0 1 1-3-1 2 2 0 0 1 3 1zm20 0a2 2 0 1 1-3-1 2 2 0 0 1 3 1zm20 0a2 2 0 1 1-3-1 2 2 0 0 1 3 1zm20 0a2 2 0 1 1-3-1 2 2 0 0 1 3 1zM51 570a2 2 0 1 1-3 0 2 2 0 0 1 3 0zm20 0a2 2 0 1 1-3 0 2 2 0 0 1 3 0zm20 0a2 2 0 1 1-3 0 2 2 0 0 1 3 0zm20 0a2 2 0 1 1-3-1 2 2 0 0 1 3 1zm20 0a2 2 0 1 1-3-1 2 2 0 0 1 3 1zm20 0a2 2 0 1 1-3-1 2 2 0 0 1 3 1zm20 0a2 2 0 1 1-3-1 2 2 0 0 1 3 1zm20 0a2 2 0 1 1-3-1 2 2 0 0 1 3 1zm20 0a2 2 0 1 1-3-1 2 2 0 0 1 3 1zm20 0a2 2 0 1 1-3-1 2 2 0 0 1 3 1zm20 0a2 2 0 1 1-3-1 2 2 0 0 1 3 1zm20 0a2 2 0 1 1-3-1 2 2 0 0 1 3 1zm20 0a2 2 0 1 1-3-1 2 2 0 0 1 3 1zm20 0a2 2 0 1 1-3-1 2 2 0 0 1 3 1zm20 0a2 2 0 1 1-3-1 2 2 0 0 1 3 1zM51 590a2 2 0 1 1-3 0 2 2 0 0 1 3 0zm20 0a2 2 0 1 1-3 0 2 2 0 0 1 3 0zm20 0a2 2 0 1 1-3 0 2 2 0 0 1 3 0zm20 0a2 2 0 1 1-3-1 2 2 0 0 1 3 1zm20 0a2 2 0 1 1-3-1 2 2 0 0 1 3 1zm20 0a2 2 0 1 1-3-1 2 2 0 0 1 3 1zm20 0a2 2 0 1 1-3-1 2 2 0 0 1 3 1zm20 0a2 2 0 1 1-3-1 2 2 0 0 1 3 1zm20 0a2 2 0 1 1-3-1 2 2 0 0 1 3 1zm20 0a2 2 0 1 1-3-1 2 2 0 0 1 3 1zm20 0a2 2 0 1 1-3-1 2 2 0 0 1 3 1zm20 0a2 2 0 1 1-3-1 2 2 0 0 1 3 1zm20 0a2 2 0 1 1-3-1 2 2 0 0 1 3 1zm20 0a2 2 0 1 1-3-1 2 2 0 0 1 3 1zm20 0a2 2 0 1 1-3-1 2 2 0 0 1 3 1zM51 610a2 2 0 1 1-3 0 2 2 0 0 1 3 0zm20 0a2 2 0 1 1-3 0 2 2 0 0 1 3 0zm20 0a2 2 0 1 1-3 0 2 2 0 0 1 3 0zm20 0a2 2 0 1 1-3-1 2 2 0 0 1 3 1zm20 0a2 2 0 1 1-3-1 2 2 0 0 1 3 1zm20 0a2 2 0 1 1-3-1 2 2 0 0 1 3 1zm20 0a2 2 0 1 1-3-1 2 2 0 0 1 3 1zm20 0a2 2 0 1 1-3-1 2 2 0 0 1 3 1zm20 0a2 2 0 1 1-3-1 2 2 0 0 1 3 1zm20 0a2 2 0 1 1-3-1 2 2 0 0 1 3 1zm20 0a2 2 0 1 1-3-1 2 2 0 0 1 3 1zm20 0a2 2 0 1 1-3-1 2 2 0 0 1 3 1zm20 0a2 2 0 1 1-3-1 2 2 0 0 1 3 1zm20 0a2 2 0 1 1-3-1 2 2 0 0 1 3 1zm20 0a2 2 0 1 1-3-1 2 2 0 0 1 3 1zm20-100a2 2 0 1 1-3-1 2 2 0 0 1 3 1zm20 0a2 2 0 1 1-3-1 2 2 0 0 1 3 1zm20 0a2 2 0 1 1-3-1 2 2 0 0 1 3 1zm20 0a2 2 0 1 1-3-1 2 2 0 0 1 3 1zm20 0a2 2 0 1 1-3-1 2 2 0 0 1 3 1zm20 0a2 2 0 1 1-3-1 2 2 0 0 1 3 1zm20 0a2 2 0 1 1-3-1 2 2 0 0 1 3 1zm20 0a2 2 0 1 1-3-1 2 2 0 0 1 3 1zm20 0a2 2 0 1 1-3-1 2 2 0 0 1 3 1zm20 0a2 2 0 1 1-3-1 2 2 0 0 1 3 1zm20 0a2 2 0 1 1-3-1 2 2 0 0 1 3 1zm20 0a2 2 0 1 1-3-1 2 2 0 0 1 3 1zm20 0a2 2 0 1 1-3-1 2 2 0 0 1 3 1zm20 0a2 2 0 1 1-3-1 2 2 0 0 1 3 1zm20 0a2 2 0 1 1-3-1 2 2 0 0 1 3 1zm-280 20a2 2 0 1 1-3-1 2 2 0 0 1 3 1zm20 0a2 2 0 1 1-3-1 2 2 0 0 1 3 1zm20 0a2 2 0 1 1-3-1 2 2 0 0 1 3 1zm20 0a2 2 0 1 1-3-1 2 2 0 0 1 3 1zm20 0a2 2 0 1 1-3-1 2 2 0 0 1 3 1zm20 0a2 2 0 1 1-3-1 2 2 0 0 1 3 1zm20 0a2 2 0 1 1-3-1 2 2 0 0 1 3 1zm20 0a2 2 0 1 1-3-1 2 2 0 0 1 3 1zm20 0a2 2 0 1 1-3-1 2 2 0 0 1 3 1zm20 0a2 2 0 1 1-3-1 2 2 0 0 1 3 1zm20 0a2 2 0 1 1-3-1 2 2 0 0 1 3 1zm20 0a2 2 0 1 1-3-1 2 2 0 0 1 3 1zm20 0a2 2 0 1 1-3-1 2 2 0 0 1 3 1zm20 0a2 2 0 1 1-3-1 2 2 0 0 1 3 1zm20 0a2 2 0 1 1-3-1 2 2 0 0 1 3 1zm-280 20a2 2 0 1 1-3-1 2 2 0 0 1 3 1zm20 0a2 2 0 1 1-3-1 2 2 0 0 1 3 1zm20 0a2 2 0 1 1-3-1 2 2 0 0 1 3 1zm20 0a2 2 0 1 1-3-1 2 2 0 0 1 3 1zm20 0a2 2 0 1 1-3-1 2 2 0 0 1 3 1zm20 0a2 2 0 1 1-3-1 2 2 0 0 1 3 1zm20 0a2 2 0 1 1-3-1 2 2 0 0 1 3 1zm20 0a2 2 0 1 1-3-1 2 2 0 0 1 3 1zm20 0a2 2 0 1 1-3-1 2 2 0 0 1 3 1zm20 0a2 2 0 1 1-3-1 2 2 0 0 1 3 1zm20 0a2 2 0 1 1-3-1 2 2 0 0 1 3 1zm20 0a2 2 0 1 1-3-1 2 2 0 0 1 3 1zm20 0a2 2 0 1 1-3-1 2 2 0 0 1 3 1zm20 0a2 2 0 1 1-3-1 2 2 0 0 1 3 1zm20 0a2 2 0 1 1-3-1 2 2 0 0 1 3 1zm-280 20a2 2 0 1 1-3-1 2 2 0 0 1 3 1zm20 0a2 2 0 1 1-3-1 2 2 0 0 1 3 1zm20 0a2 2 0 1 1-3-1 2 2 0 0 1 3 1zm20 0a2 2 0 1 1-3-1 2 2 0 0 1 3 1zm20 0a2 2 0 1 1-3-1 2 2 0 0 1 3 1zm20 0a2 2 0 1 1-3-1 2 2 0 0 1 3 1zm20 0a2 2 0 1 1-3-1 2 2 0 0 1 3 1zm20 0a2 2 0 1 1-3-1 2 2 0 0 1 3 1zm20 0a2 2 0 1 1-3-1 2 2 0 0 1 3 1zm20 0a2 2 0 1 1-3-1 2 2 0 0 1 3 1zm20 0a2 2 0 1 1-3-1 2 2 0 0 1 3 1zm20 0a2 2 0 1 1-3-1 2 2 0 0 1 3 1zm20 0a2 2 0 1 1-3-1 2 2 0 0 1 3 1zm20 0a2 2 0 1 1-3-1 2 2 0 0 1 3 1zm20 0a2 2 0 1 1-3-1 2 2 0 0 1 3 1zm-280 20a2 2 0 1 1-3-1 2 2 0 0 1 3 1zm20 0a2 2 0 1 1-3-1 2 2 0 0 1 3 1zm20 0a2 2 0 1 1-3-1 2 2 0 0 1 3 1zm20 0a2 2 0 1 1-3-1 2 2 0 0 1 3 1zm20 0a2 2 0 1 1-3-1 2 2 0 0 1 3 1zm20 0a2 2 0 1 1-3-1 2 2 0 0 1 3 1zm20 0a2 2 0 1 1-3-1 2 2 0 0 1 3 1zm20 0a2 2 0 1 1-3-1 2 2 0 0 1 3 1zm20 0a2 2 0 1 1-3-1 2 2 0 0 1 3 1zm20 0a2 2 0 1 1-3-1 2 2 0 0 1 3 1zm20 0a2 2 0 1 1-3-1 2 2 0 0 1 3 1zm20 0a2 2 0 1 1-3-1 2 2 0 0 1 3 1zm20 0a2 2 0 1 1-3-1 2 2 0 0 1 3 1zm20 0a2 2 0 1 1-3-1 2 2 0 0 1 3 1zm20 0a2 2 0 1 1-3-1 2 2 0 0 1 3 1zm-280 20a2 2 0 1 1-3-1 2 2 0 0 1 3 1zm20 0a2 2 0 1 1-3-1 2 2 0 0 1 3 1zm20 0a2 2 0 1 1-3-1 2 2 0 0 1 3 1zm20 0a2 2 0 1 1-3-1 2 2 0 0 1 3 1zm20 0a2 2 0 1 1-3-1 2 2 0 0 1 3 1zm20 0a2 2 0 1 1-3-1 2 2 0 0 1 3 1zm20 0a2 2 0 1 1-3-1 2 2 0 0 1 3 1zm20 0a2 2 0 1 1-3-1 2 2 0 0 1 3 1zm20 0a2 2 0 1 1-3-1 2 2 0 0 1 3 1zm20 0a2 2 0 1 1-3-1 2 2 0 0 1 3 1zm20 0a2 2 0 1 1-3-1 2 2 0 0 1 3 1zm20 0a2 2 0 1 1-3-1 2 2 0 0 1 3 1zm20 0a2 2 0 1 1-3-1 2 2 0 0 1 3 1zm20 0a2 2 0 1 1-3-1 2 2 0 0 1 3 1zm20 0a2 2 0 1 1-3-1 2 2 0 0 1 3 1zm20-100a2 2 0 1 1-3-1 2 2 0 0 1 3 1zm20 0a2 2 0 1 1-3-1 2 2 0 0 1 3 1zm20 0a2 2 0 1 1-3-1 2 2 0 0 1 3 1zm20 0a2 2 0 1 1-3-1 2 2 0 0 1 3 1zm20 0a2 2 0 1 1-3-1 2 2 0 0 1 3 1zm20 0a2 2 0 1 1-3-1 2 2 0 0 1 3 1zm20 0a2 2 0 1 1-3-1 2 2 0 0 1 3 1zm20 0a2 2 0 1 1-3-1 2 2 0 0 1 3 1zm20 0a2 2 0 1 1-3-1 2 2 0 0 1 3 1zm20 0a2 2 0 1 1-3-1 2 2 0 0 1 3 1zm20 0a2 2 0 1 1-3-1 2 2 0 0 1 3 1zm20 0a2 2 0 1 1-3-1 2 2 0 0 1 3 1zm20 0a2 2 0 1 1-3-1 2 2 0 0 1 3 1zm20 0a2 2 0 1 1-3-1 2 2 0 0 1 3 1zm20 0a2 2 0 1 1-3-1 2 2 0 0 1 3 1zm-280 20a2 2 0 1 1-3-1 2 2 0 0 1 3 1zm20 0a2 2 0 1 1-3-1 2 2 0 0 1 3 1zm20 0a2 2 0 1 1-3-1 2 2 0 0 1 3 1zm20 0a2 2 0 1 1-3-1 2 2 0 0 1 3 1zm20 0a2 2 0 1 1-3-1 2 2 0 0 1 3 1zm20 0a2 2 0 1 1-3-1 2 2 0 0 1 3 1zm20 0a2 2 0 1 1-3-1 2 2 0 0 1 3 1zm20 0a2 2 0 1 1-3-1 2 2 0 0 1 3 1zm20 0a2 2 0 1 1-3-1 2 2 0 0 1 3 1zm20 0a2 2 0 1 1-3-1 2 2 0 0 1 3 1zm20 0a2 2 0 1 1-3-1 2 2 0 0 1 3 1zm20 0a2 2 0 1 1-3-1 2 2 0 0 1 3 1zm20 0a2 2 0 1 1-3-1 2 2 0 0 1 3 1zm20 0a2 2 0 1 1-3-1 2 2 0 0 1 3 1zm20 0a2 2 0 1 1-3-1 2 2 0 0 1 3 1zm-280 20a2 2 0 1 1-3-1 2 2 0 0 1 3 1zm20 0a2 2 0 1 1-3-1 2 2 0 0 1 3 1zm20 0a2 2 0 1 1-3-1 2 2 0 0 1 3 1zm20 0a2 2 0 1 1-3-1 2 2 0 0 1 3 1zm20 0a2 2 0 1 1-3-1 2 2 0 0 1 3 1zm20 0a2 2 0 1 1-3-1 2 2 0 0 1 3 1zm20 0a2 2 0 1 1-3-1 2 2 0 0 1 3 1zm20 0a2 2 0 1 1-3-1 2 2 0 0 1 3 1zm20 0a2 2 0 1 1-3-1 2 2 0 0 1 3 1zm20 0a2 2 0 1 1-3-1 2 2 0 0 1 3 1zm20 0a2 2 0 1 1-3-1 2 2 0 0 1 3 1zm20 0a2 2 0 1 1-3-1 2 2 0 0 1 3 1zm20 0a2 2 0 1 1-3-1 2 2 0 0 1 3 1zm20 0a2 2 0 1 1-3-1 2 2 0 0 1 3 1zm20 0a2 2 0 1 1-3-1 2 2 0 0 1 3 1zm-280 20a2 2 0 1 1-3-1 2 2 0 0 1 3 1zm20 0a2 2 0 1 1-3-1 2 2 0 0 1 3 1zm20 0a2 2 0 1 1-3-1 2 2 0 0 1 3 1zm20 0a2 2 0 1 1-3-1 2 2 0 0 1 3 1zm20 0a2 2 0 1 1-3-1 2 2 0 0 1 3 1zm20 0a2 2 0 1 1-3-1 2 2 0 0 1 3 1zm20 0a2 2 0 1 1-3-1 2 2 0 0 1 3 1zm20 0a2 2 0 1 1-3-1 2 2 0 0 1 3 1zm20 0a2 2 0 1 1-3-1 2 2 0 0 1 3 1zm20 0a2 2 0 1 1-3-1 2 2 0 0 1 3 1zm20 0a2 2 0 1 1-3-1 2 2 0 0 1 3 1zm20 0a2 2 0 1 1-3-1 2 2 0 0 1 3 1zm20 0a2 2 0 1 1-3-1 2 2 0 0 1 3 1zm20 0a2 2 0 1 1-3-1 2 2 0 0 1 3 1zm20 0a2 2 0 1 1-3-1 2 2 0 0 1 3 1zm-280 20a2 2 0 1 1-3-1 2 2 0 0 1 3 1zm20 0a2 2 0 1 1-3-1 2 2 0 0 1 3 1zm20 0a2 2 0 1 1-3-1 2 2 0 0 1 3 1zm20 0a2 2 0 1 1-3-1 2 2 0 0 1 3 1zm20 0a2 2 0 1 1-3-1 2 2 0 0 1 3 1zm20 0a2 2 0 1 1-3-1 2 2 0 0 1 3 1zm20 0a2 2 0 1 1-3-1 2 2 0 0 1 3 1zm20 0a2 2 0 1 1-3-1 2 2 0 0 1 3 1zm20 0a2 2 0 1 1-3-1 2 2 0 0 1 3 1zm20 0a2 2 0 1 1-3-1 2 2 0 0 1 3 1zm20 0a2 2 0 1 1-3-1 2 2 0 0 1 3 1zm20 0a2 2 0 1 1-3-1 2 2 0 0 1 3 1zm20 0a2 2 0 1 1-3-1 2 2 0 0 1 3 1zm20 0a2 2 0 1 1-3-1 2 2 0 0 1 3 1zm20 0a2 2 0 1 1-3-1 2 2 0 0 1 3 1zm-280 20a2 2 0 1 1-3-1 2 2 0 0 1 3 1zm20 0a2 2 0 1 1-3-1 2 2 0 0 1 3 1zm20 0a2 2 0 1 1-3-1 2 2 0 0 1 3 1zm20 0a2 2 0 1 1-3-1 2 2 0 0 1 3 1zm20 0a2 2 0 1 1-3-1 2 2 0 0 1 3 1zm20 0a2 2 0 1 1-3-1 2 2 0 0 1 3 1zm20 0a2 2 0 1 1-3-1 2 2 0 0 1 3 1zm20 0a2 2 0 1 1-3-1 2 2 0 0 1 3 1zm20 0a2 2 0 1 1-3-1 2 2 0 0 1 3 1zm20 0a2 2 0 1 1-3-1 2 2 0 0 1 3 1zm20 0a2 2 0 1 1-3-1 2 2 0 0 1 3 1zm20 0a2 2 0 1 1-3-1 2 2 0 0 1 3 1zm20 0a2 2 0 1 1-3-1 2 2 0 0 1 3 1zm20 0a2 2 0 1 1-3-1 2 2 0 0 1 3 1zm20 0a2 2 0 1 1-3-1 2 2 0 0 1 3 1zm20-100a2 2 0 1 1-3-1 2 2 0 0 1 3 1zm20 0a2 2 0 1 1-3-1 2 2 0 0 1 3 1zm20 0a2 2 0 1 1-3-1 2 2 0 0 1 3 1zm20 0a2 2 0 1 1-3 0 2 2 0 0 1 3-1zm20 0a2 2 0 1 1-3 0 2 2 0 0 1 3-1zm20 0a2 2 0 1 1-3 0 2 2 0 0 1 3-1zm20 0a2 2 0 1 1-3 0 2 2 0 0 1 3-1zm20 0a2 2 0 1 1-3 0 2 2 0 0 1 3-1zm20 0a2 2 0 1 1-3 0 2 2 0 0 1 3-1zm20 0a2 2 0 1 1-3 0 2 2 0 0 1 3-1zm-180 20a2 2 0 1 1-3-1 2 2 0 0 1 3 1zm20 0a2 2 0 1 1-3-1 2 2 0 0 1 3 1zm20 0a2 2 0 1 1-3-1 2 2 0 0 1 3 1zm20 0a2 2 0 1 1-3 0 2 2 0 0 1 3-1zm20 0a2 2 0 1 1-3 0 2 2 0 0 1 3-1zm20 0a2 2 0 1 1-3 0 2 2 0 0 1 3-1zm20 0a2 2 0 1 1-3 0 2 2 0 0 1 3-1zm20 0a2 2 0 1 1-3 0 2 2 0 0 1 3-1zm20 0a2 2 0 1 1-3 0 2 2 0 0 1 3-1zm20 0a2 2 0 1 1-3 0 2 2 0 0 1 3-1zm-180 20a2 2 0 1 1-3-1 2 2 0 0 1 3 1zm20 0a2 2 0 1 1-3-1 2 2 0 0 1 3 1zm20 0a2 2 0 1 1-3-1 2 2 0 0 1 3 1zm20 0a2 2 0 1 1-3 0 2 2 0 0 1 3-1zm20 0a2 2 0 1 1-3 0 2 2 0 0 1 3-1zm20 0a2 2 0 1 1-3 0 2 2 0 0 1 3-1zm20 0a2 2 0 1 1-3 0 2 2 0 0 1 3-1zm20 0a2 2 0 1 1-3 0 2 2 0 0 1 3-1zm20 0a2 2 0 1 1-3 0 2 2 0 0 1 3-1zm20 0a2 2 0 1 1-3 0 2 2 0 0 1 3-1zm-180 20a2 2 0 1 1-3-1 2 2 0 0 1 3 1zm20 0a2 2 0 1 1-3-1 2 2 0 0 1 3 1zm20 0a2 2 0 1 1-3-1 2 2 0 0 1 3 1zm20 0a2 2 0 1 1-3 0 2 2 0 0 1 3-1zm20 0a2 2 0 1 1-3 0 2 2 0 0 1 3-1zm20 0a2 2 0 1 1-3 0 2 2 0 0 1 3-1zm20 0a2 2 0 1 1-3 0 2 2 0 0 1 3-1zm20 0a2 2 0 1 1-3 0 2 2 0 0 1 3-1zm20 0a2 2 0 1 1-3 0 2 2 0 0 1 3-1zm20 0a2 2 0 1 1-3 0 2 2 0 0 1 3-1zm-180 20a2 2 0 1 1-3-1 2 2 0 0 1 3 1zm20 0a2 2 0 1 1-3-1 2 2 0 0 1 3 1zm20 0a2 2 0 1 1-3-1 2 2 0 0 1 3 1zm20 0a2 2 0 1 1-3 0 2 2 0 0 1 3-1zm20 0a2 2 0 1 1-3 0 2 2 0 0 1 3-1zm20 0a2 2 0 1 1-3 0 2 2 0 0 1 3-1zm20 0a2 2 0 1 1-3 0 2 2 0 0 1 3-1zm20 0a2 2 0 1 1-3 0 2 2 0 0 1 3-1zm20 0a2 2 0 1 1-3 0 2 2 0 0 1 3-1zm20 0a2 2 0 1 1-3 0 2 2 0 0 1 3-1zm-180 20a2 2 0 1 1-3-1 2 2 0 0 1 3 1zm20 0a2 2 0 1 1-3-1 2 2 0 0 1 3 1zm20 0a2 2 0 1 1-3-1 2 2 0 0 1 3 1zm20 0a2 2 0 1 1-3 0 2 2 0 0 1 3-1zm20 0a2 2 0 1 1-3 0 2 2 0 0 1 3-1zm20 0a2 2 0 1 1-3 0 2 2 0 0 1 3-1zm20 0a2 2 0 1 1-3 0 2 2 0 0 1 3-1zm20 0a2 2 0 1 1-3 0 2 2 0 0 1 3-1zm20 0a2 2 0 1 1-3 0 2 2 0 0 1 3-1zm20 0a2 2 0 1 1-3 0 2 2 0 0 1 3-1zM51 630a2 2 0 1 1-3 0 2 2 0 0 1 3 0zm20 0a2 2 0 1 1-3 0 2 2 0 0 1 3 0zm20 0a2 2 0 1 1-3 0 2 2 0 0 1 3 0zm20 0a2 2 0 1 1-3-1 2 2 0 0 1 3 1zm20 0a2 2 0 1 1-3-1 2 2 0 0 1 3 1zm20 0a2 2 0 1 1-3-1 2 2 0 0 1 3 1zm20 0a2 2 0 1 1-3-1 2 2 0 0 1 3 1zm20 0a2 2 0 1 1-3-1 2 2 0 0 1 3 1zm20 0a2 2 0 1 1-3-1 2 2 0 0 1 3 1zm20 0a2 2 0 1 1-3-1 2 2 0 0 1 3 1zm20 0a2 2 0 1 1-3-1 2 2 0 0 1 3 1zm20 0a2 2 0 1 1-3-1 2 2 0 0 1 3 1zm20 0a2 2 0 1 1-3-1 2 2 0 0 1 3 1zm20 0a2 2 0 1 1-3-1 2 2 0 0 1 3 1zm20 0a2 2 0 1 1-3-1 2 2 0 0 1 3 1zm20 0a2 2 0 1 1-3-1 2 2 0 0 1 3 1zm20 0a2 2 0 1 1-3-1 2 2 0 0 1 3 1zm20 0a2 2 0 1 1-3-1 2 2 0 0 1 3 1zm20 0a2 2 0 1 1-3-1 2 2 0 0 1 3 1zm20 0a2 2 0 1 1-3-1 2 2 0 0 1 3 1zm20 0a2 2 0 1 1-3-1 2 2 0 0 1 3 1zm20 0a2 2 0 1 1-3-1 2 2 0 0 1 3 1zm20 0a2 2 0 1 1-3-1 2 2 0 0 1 3 1zm20 0a2 2 0 1 1-3-1 2 2 0 0 1 3 1zm20 0a2 2 0 1 1-3-1 2 2 0 0 1 3 1zm20 0a2 2 0 1 1-3-1 2 2 0 0 1 3 1zm20 0a2 2 0 1 1-3-1 2 2 0 0 1 3 1zm20 0a2 2 0 1 1-3-1 2 2 0 0 1 3 1zm20 0a2 2 0 1 1-3-1 2 2 0 0 1 3 1zm20 0a2 2 0 1 1-3-1 2 2 0 0 1 3 1zm20 0a2 2 0 1 1-3-1 2 2 0 0 1 3 1zm20 0a2 2 0 1 1-3-1 2 2 0 0 1 3 1zm20 0a2 2 0 1 1-3-1 2 2 0 0 1 3 1zm20 0a2 2 0 1 1-3-1 2 2 0 0 1 3 1zm20 0a2 2 0 1 1-3-1 2 2 0 0 1 3 1zm20 0a2 2 0 1 1-3-1 2 2 0 0 1 3 1zm20 0a2 2 0 1 1-3-1 2 2 0 0 1 3 1zm20 0a2 2 0 1 1-3-1 2 2 0 0 1 3 1zm20 0a2 2 0 1 1-3-1 2 2 0 0 1 3 1zm20 0a2 2 0 1 1-3-1 2 2 0 0 1 3 1zm20 0a2 2 0 1 1-3-1 2 2 0 0 1 3 1zm20 0a2 2 0 1 1-3-1 2 2 0 0 1 3 1zm20 0a2 2 0 1 1-3-1 2 2 0 0 1 3 1zm20 0a2 2 0 1 1-3-1 2 2 0 0 1 3 1zm20 0a2 2 0 1 1-3-1 2 2 0 0 1 3 1zm20 0a2 2 0 1 1-3-1 2 2 0 0 1 3 1zm20 0a2 2 0 1 1-3-1 2 2 0 0 1 3 1zm20 0a2 2 0 1 1-3-1 2 2 0 0 1 3 1zm20 0a2 2 0 1 1-3 0 2 2 0 0 1 3-1zm20 0a2 2 0 1 1-3 0 2 2 0 0 1 3-1zm20 0a2 2 0 1 1-3 0 2 2 0 0 1 3-1zm20 0a2 2 0 1 1-3 0 2 2 0 0 1 3-1zm20 0a2 2 0 1 1-3 0 2 2 0 0 1 3-1zm20 0a2 2 0 1 1-3 0 2 2 0 0 1 3-1zm20 0a2 2 0 1 1-3 0 2 2 0 0 1 3-1zM-69 10a2 2 0 1 1-3 0 2 2 0 0 1 3 0zm20 0a2 2 0 1 1-3 0 2 2 0 0 1 3 0zm20 0a2 2 0 1 1-3 0 2 2 0 0 1 3 0zm20 0a2 2 0 1 1-3 0 2 2 0 0 1 3 0zm20 0a2 2 0 1 1-3 0 2 2 0 0 1 3 0zm20 0a2 2 0 1 1-3 0 2 2 0 0 1 3 0zM-69 30a2 2 0 1 1-3 0 2 2 0 0 1 3 0zm20 0a2 2 0 1 1-3 0 2 2 0 0 1 3 0zm20 0a2 2 0 1 1-3 0 2 2 0 0 1 3 0zm20 0a2 2 0 1 1-3 0 2 2 0 0 1 3 0zm20 0a2 2 0 1 1-3 0 2 2 0 0 1 3 0zm20 0a2 2 0 1 1-3 0 2 2 0 0 1 3 0zM-69 50a2 2 0 1 1-3 0 2 2 0 0 1 3 0zm20 0a2 2 0 1 1-3 0 2 2 0 0 1 3 0zm20 0a2 2 0 1 1-3 0 2 2 0 0 1 3 0zm20 0a2 2 0 1 1-3 0 2 2 0 0 1 3 0zm20 0a2 2 0 1 1-3 0 2 2 0 0 1 3 0zm20 0a2 2 0 1 1-3 0 2 2 0 0 1 3 0zM-69 70a2 2 0 1 1-3 0 2 2 0 0 1 3 0zm20 0a2 2 0 1 1-3 0 2 2 0 0 1 3 0zm20 0a2 2 0 1 1-3 0 2 2 0 0 1 3 0zm20 0a2 2 0 1 1-3 0 2 2 0 0 1 3 0zm20 0a2 2 0 1 1-3 0 2 2 0 0 1 3 0zm20 0a2 2 0 1 1-3 0 2 2 0 0 1 3 0zM-69 90a2 2 0 1 1-3 0 2 2 0 0 1 3 0zm20 0a2 2 0 1 1-3 0 2 2 0 0 1 3 0zm20 0a2 2 0 1 1-3 0 2 2 0 0 1 3 0zm20 0a2 2 0 1 1-3 0 2 2 0 0 1 3 0zm20 0a2 2 0 1 1-3 0 2 2 0 0 1 3 0zm20 0a2 2 0 1 1-3 0 2 2 0 0 1 3 0zm-100 20a2 2 0 1 1-3 0 2 2 0 0 1 3 0zm20 0a2 2 0 1 1-3 0 2 2 0 0 1 3 0zm20 0a2 2 0 1 1-3 0 2 2 0 0 1 3 0zm20 0a2 2 0 1 1-3 0 2 2 0 0 1 3 0zm20 0a2 2 0 1 1-3 0 2 2 0 0 1 3 0zm20 0a2 2 0 1 1-3 0 2 2 0 0 1 3 0z"/>
  </g>
  <defs>
    <linearGradient id="paint0_linear" x1="1095" x2="-52.2" y1="0" y2="73.8" gradientUnits="userSpaceOnUse">
      <stop stop-color="#49CCF9"/>
      <stop offset="1" stop-color="#8930FD"/>
    </linearGradient>
    <linearGradient id="paint1_linear" x1="1095" x2="-52.2" y1="0" y2="73.8" gradientUnits="userSpaceOnUse">
      <stop stop-color="#49CCF9"/>
      <stop offset="1" stop-color="#8930FD"/>
    </linearGradient>
  </defs>
</svg>
